<?xml version="1.0" encoding="utf-8"?>
<svg version="1.0" width="512" height="512" preserveAspectRatio="xMidYMid meet" style="" xmlns="http://www.w3.org/2000/svg">
  <rect id="backgroundrect" width="100%" height="100%" x="0" y="0" fill="none" stroke="none"/>
  <g class="currentLayer" style="">
    <title>Layer 1</title>
    <g transform="matrix(0.1, 0, 0, -0.1, 0, 512)" fill="#ab90e4" stroke="none" id="svg_1" class="" fill-opacity="1">
      <path d="M1786 5094 c-24 -25 -26 -33 -26 -120 l0 -94 -292 0 c-215 -1 -297 -4 -309 -13 -37 -29 -39 -47 -39 -461 l0 -406 -292 0 c-215 -1 -297 -4 -309 -13 -37 -28 -39 -48 -39 -426 l0 -371 -27 -6 c-54 -13 -126 -56 -173 -103 -158 -158 -158 -404 0 -562 47 -47 119 -90 173 -103 l27 -6 0 -371 c0 -378 2 -398 39 -426 12 -9 163 -12 629 -13 l612 0 0 -94 c0 -87 2 -95 26 -120 l27 -26 333 0 334 0 0 -123 0 -124 -51 -11 c-145 -34 -302 -159 -367 -292 -128 -261 -44 -563 200 -720 162 -105 369 -116 548 -28 133 65 258 222 292 367 l11 51 456 0 c481 1 474 0 499 47 9 16 12 301 12 1107 l0 1086 253 0 c182 1 256 4 268 13 37 28 39 48 39 426 l0 371 27 6 c89 22 200 111 244 195 83 163 56 343 -71 470 -47 47 -119 90 -172 103 l-28 6 0 251 c0 254 -3 279 -39 306 -12 9 -163 12 -628 13 l-613 0 0 86 c0 85 -9 118 -39 141 -12 10 -191 12 -762 13 l-746 0 -27 -26z m1414 -294 l0 -160 -640 0 -640 0 0 160 0 160 640 0 640 0 0 -160z m-1440 -174 c0 -87 2 -95 26 -120 l27 -26 333 0 334 0 0 -120 0 -120 -334 0 -333 0 -27 -26 c-24 -25 -26 -33 -26 -120 l0 -94 -240 0 -240 0 0 360 0 360 240 0 240 0 0 -94z m2720 -111 l0 -205 -27 -6 c-54 -13 -126 -56 -173 -103 -158 -158 -158 -404 0 -562 47 -47 119 -90 173 -103 l27 -6 0 -325 0 -325 -662 0 -663 0 -257 257 -258 258 0 102 0 103 333 0 c349 1 351 1 375 47 17 30 17 516 0 546 -24 46 -26 46 -375 47 l-333 0 0 120 0 120 333 0 c245 1 336 4 348 13 30 23 39 56 39 141 l0 86 560 0 560 0 0 -205z m170 -376 c60 -27 98 -64 126 -124 41 -86 24 -186 -44 -259 -38 -40 -118 -76 -172 -76 -54 0 -134 36 -172 76 -114 122 -76 308 77 380 62 29 125 30 185 3z m-1450 -219 l0 -160 -640 0 -640 0 0 160 0 160 640 0 640 0 0 -160z m-1440 -174 c0 -87 2 -95 26 -120 l27 -26 333 0 334 0 0 -102 0 -103 -257 -257 -258 -258 -102 0 -103 0 0 -80 0 -80 102 0 103 0 257 -257 258 -258 0 -102 0 -103 -334 0 -333 0 -27 -26 c-24 -25 -26 -33 -26 -120 l0 -94 -560 0 -560 0 0 325 0 325 28 6 c53 13 125 56 172 103 158 158 158 404 0 562 -47 47 -119 90 -172 103 l-28 6 0 325 0 325 560 0 560 0 0 -94z m1030 -721 l225 -225 -228 -228 -227 -227 -227 227 -228 228 225 225 c124 124 227 225 230 225 3 0 106 -101 230 -225z m-2140 -6 c60 -27 98 -64 126 -124 41 -86 24 -186 -44 -259 -38 -40 -118 -76 -172 -76 -54 0 -134 36 -172 76 -114 122 -76 308 77 380 62 29 125 30 185 3z m3270 -1339 l0 -1040 -403 0 -404 0 -11 51 c-46 196 -215 365 -411 411 l-51 11 0 124 0 123 333 0 c349 1 351 1 375 47 17 30 17 516 0 546 -24 46 -26 46 -375 47 l-333 0 0 102 0 103 257 257 258 258 382 0 383 0 0 -1040z m-720 0 l0 -160 -640 0 -640 0 0 160 0 160 640 0 640 0 0 -160z m-547 -735 c82 -21 133 -50 189 -106 87 -87 132 -224 110 -339 -33 -178 -154 -299 -332 -332 -116 -22 -252 23 -340 112 -89 88 -134 224 -112 340 30 166 136 282 295 325 69 18 120 18 190 0z" id="svg_2" fill-opacity="1" style=""/>
      <path d="M1120 2800 l0 -80 80 0 80 0 0 80 0 80 -80 0 -80 0 0 -80z" id="svg_3" fill-opacity="1" style=""/>
      <path d="M1440 2800 l0 -80 80 0 80 0 0 80 0 80 -80 0 -80 0 0 -80z" id="svg_4" fill-opacity="1" style=""/>
    </g>
  </g>
</svg>