<?xml version="1.0" encoding="utf-8"?>
<svg version="1.0" width="512.000000pt" height="512.000000pt" viewBox="0 0 512.000000 512.000000" preserveAspectRatio="xMidYMid meet" xmlns="http://www.w3.org/2000/svg">
  <g transform="translate(0.000000,512.000000) scale(0.100000,-0.100000)" fill="#000000" stroke="none">
    <path d="M2040 4740 c-145 -25 -272 -112 -353 -242 -15 -24 -20 -26 -44 -17 -52 19 -174 22 -246 5 -104 -25 -174 -63 -250 -138 -72 -71 -130 -174 -143 -255 l-6 -40 -73 -6 c-212 -18 -379 -153 -439 -356 -33 -112 -14 -295 40 -379 12 -18 12 -23 2 -26 -155 -48 -308 -160 -398 -292 -45 -65 -97 -181 -115 -256 -20 -86 -20 -273 1 -357 20 -79 70 -192 115 -257 86 -126 239 -238 392 -288 16 -5 16 -8 3 -28 -57 -88 -73 -269 -36 -390 25 -80 83 -172 141 -222 83 -72 222 -125 325 -126 41 0 42 -1 48 -41 4 -23 22 -75 41 -116 97 -210 344 -332 568 -279 l58 14 35 -54 c60 -91 150 -158 263 -196 85 -28 217 -30 309 -3 121 35 241 133 301 244 56 106 61 145 61 473 l0 298 322 0 323 0 76 -76 76 -76 -14 -41 c-26 -75 -5 -162 53 -221 45 -45 83 -60 154 -60 54 -1 73 4 112 27 122 72 143 242 42 344 -48 47 -102 66 -175 61 l-48 -3 -104 103 -104 102 -357 0 -356 0 0 150 0 150 144 0 c130 0 146 2 170 21 35 27 36 86 3 117 -22 21 -33 22 -170 22 l-147 0 0 120 0 120 1030 0 1029 0 15 -27 c53 -103 184 -142 293 -88 75 38 107 89 111 180 6 102 -28 164 -113 208 -93 48 -224 14 -282 -74 l-26 -39 -1028 0 -1029 0 0 110 0 110 806 0 807 0 91 89 91 90 67 -1 c85 -2 149 29 193 91 27 39 30 50 30 124 0 73 -3 86 -28 123 -81 120 -274 127 -357 12 -40 -55 -53 -122 -36 -186 l13 -51 -66 -65 -67 -66 -772 0 -772 0 0 140 0 140 89 0 c74 0 92 3 115 21 35 28 36 80 1 114 -22 23 -32 25 -115 25 l-90 0 0 150 0 150 356 0 357 0 104 103 104 102 48 -3 c73 -5 127 14 175 61 101 102 80 272 -42 344 -39 23 -59 28 -112 28 -71 -1 -108 -15 -154 -61 -58 -59 -79 -146 -53 -221 l14 -41 -76 -76 -76 -76 -323 0 -322 0 0 298 c0 235 -3 310 -15 357 -67 255 -324 420 -585 375z m235 -189 c74 -35 136 -95 172 -169 l28 -57 0 -1765 0 -1765 -27 -55 c-75 -153 -243 -235 -399 -196 -114 30 -192 95 -242 204 -13 28 -30 58 -37 67 -18 22 -79 19 -136 -7 -37 -17 -69 -22 -129 -23 -71 0 -88 4 -147 33 -82 40 -148 111 -179 190 -20 51 -23 81 -28 284 -7 255 -8 260 -76 260 -25 0 -45 -7 -59 -21 -19 -20 -21 -34 -24 -163 l-4 -141 -56 7 c-126 15 -240 101 -282 214 -18 46 -21 72 -18 137 5 93 25 138 93 215 34 38 45 59 45 84 0 48 -31 71 -124 89 -290 59 -486 295 -486 587 0 146 34 248 123 365 85 112 216 192 363 222 93 18 124 41 124 89 0 25 -11 46 -45 84 -68 77 -88 122 -93 215 -3 65 0 91 18 137 42 113 156 199 282 214 l56 7 4 -141 c3 -129 5 -143 24 -163 14 -14 34 -21 59 -21 68 0 69 5 76 260 5 203 8 233 28 284 31 79 97 150 179 190 59 29 76 33 147 33 60 -1 92 -6 129 -23 57 -26 118 -29 136 -7 7 9 24 39 37 67 87 187 287 264 468 179z" style="fill: rgb(171, 144, 228);"/>
    <path d="M1725 3910 c-24 -26 -25 -82 -2 -108 14 -15 37 -20 112 -25 103 -7 151 -25 197 -74 51 -54 58 -86 58 -283 l0 -182 30 -30 c26 -25 36 -29 63 -24 18 3 40 16 50 28 17 20 18 41 15 237 l-3 216 -31 60 c-38 71 -116 148 -182 178 -37 17 -71 22 -167 25 -113 4 -121 3 -140 -18z" style="fill: rgb(171, 144, 228);"/>
    <path d="M1322 3507 c-21 -22 -22 -33 -22 -186 0 -181 8 -222 53 -277 63 -76 199 -110 245 -61 47 49 19 122 -51 134 -22 3 -51 17 -64 29 -22 22 -23 30 -23 169 0 185 -12 215 -89 215 -16 0 -37 -10 -49 -23z" style="fill: rgb(171, 144, 228);"/>
    <path d="M1014 3379 c-15 -16 -19 -36 -19 -86 0 -59 3 -67 29 -90 35 -29 80 -26 109 8 26 32 24 142 -3 169 -28 28 -90 27 -116 -1z" style="fill: rgb(171, 144, 228);"/>
    <path d="M1434 2136 c-58 -27 -106 -80 -123 -135 -6 -22 -11 -109 -11 -203 0 -159 1 -165 23 -186 13 -12 35 -22 49 -22 76 0 88 30 88 215 0 139 1 147 23 169 13 12 42 26 64 29 48 8 73 36 73 82 0 73 -87 97 -186 51z" style="fill: rgb(171, 144, 228);"/>
    <path d="M1024 1917 c-26 -23 -29 -31 -29 -90 0 -81 19 -107 77 -107 59 0 78 26 78 104 0 74 -17 102 -66 112 -24 5 -37 0 -60 -19z" style="fill: rgb(171, 144, 228);"/>
    <path d="M2120 1912 l-30 -30 0 -182 c0 -197 -7 -229 -58 -283 -46 -49 -94 -67 -197 -74 -75 -5 -98 -10 -112 -25 -23 -26 -22 -82 2 -108 19 -21 27 -22 140 -18 103 3 127 7 170 28 70 34 142 104 179 175 l31 60 3 216 c3 196 2 217 -15 237 -10 12 -32 25 -50 28 -27 5 -37 1 -63 -24z" style="fill: rgb(171, 144, 228);"/>
    <path d="M4322 3950 c-45 -19 -91 -62 -111 -104 -23 -47 -28 -136 -11 -182 11 -27 5 -34 -182 -221 l-193 -193 -151 0 c-138 0 -154 -2 -178 -21 -37 -29 -37 -89 0 -118 25 -20 40 -21 212 -21 l186 0 220 219 221 219 67 0 c82 -1 144 31 186 94 24 37 27 51 27 123 0 70 -3 86 -25 118 -43 63 -94 91 -175 94 -38 2 -80 -2 -93 -7z" style="fill: rgb(171, 144, 228);"/>
    <path d="M3061 3233 c-12 -10 -24 -35 -27 -55 -5 -30 -2 -41 19 -62 24 -24 33 -26 114 -26 100 0 127 12 138 59 7 33 -15 85 -40 95 -9 3 -54 6 -100 6 -64 0 -88 -4 -104 -17z" style="fill: rgb(171, 144, 228);"/>
    <path d="M3182 2023 c-21 -8 -44 -63 -38 -89 4 -13 16 -33 28 -44 21 -19 34 -20 337 -20 l316 0 193 -193 192 -193 -11 -32 c-19 -56 -7 -154 24 -200 85 -122 279 -122 364 1 25 36 28 49 28 122 0 72 -3 86 -27 123 -42 63 -104 95 -186 94 l-67 0 -221 219 -220 219 -350 -1 c-192 0 -355 -3 -362 -6z" style="fill: rgb(171, 144, 228);"/>
  </g>
</svg>