<?xml version="1.0" standalone="no"?>
<!DOCTYPE svg PUBLIC "-//W3C//DTD SVG 20010904//EN"
 "http://www.w3.org/TR/2001/REC-SVG-20010904/DTD/svg10.dtd">
<svg version="1.0" xmlns="http://www.w3.org/2000/svg"
 width="512.000000pt" height="512.000000pt" viewBox="0 0 512.000000 512.000000"
 preserveAspectRatio="xMidYMid meet">

<g transform="translate(0.000000,512.000000) scale(0.100000,-0.100000)"
fill="#000000" stroke="none">
<path d="M377 5110 c-177 -30 -337 -194 -367 -376 -13 -80 -13 -4268 0 -4348
30 -187 189 -346 376 -376 80 -13 4268 -13 4348 0 187 30 346 189 376 376 13
80 13 4268 0 4348 -30 187 -189 346 -376 376 -72 12 -4287 11 -4357 0z m4378
-247 c47 -25 85 -64 111 -113 18 -34 19 -107 19 -2190 0 -2083 -1 -2156 -19
-2190 -26 -49 -64 -88 -111 -113 l-40 -22 -2155 0 c-2083 0 -2156 1 -2190 19
-49 26 -88 64 -113 111 l-22 40 0 2155 c0 2083 1 2156 19 2190 36 69 92 114
161 131 17 4 991 6 2165 6 l2135 -2 40 -22z"/>
<path d="M1201 2989 c-38 -37 -45 -87 -19 -136 6 -12 195 -161 420 -330 224
-169 407 -310 406 -314 -2 -5 -186 -145 -410 -313 -224 -168 -412 -315 -419
-327 -15 -28 -14 -92 2 -117 19 -30 63 -52 103 -52 31 0 94 44 523 365 533
399 536 402 514 476 -11 37 -46 65 -489 398 -263 197 -488 363 -499 370 -12 6
-40 11 -62 11 -31 0 -46 -7 -70 -31z"/>
<path d="M2413 1389 c-17 -5 -43 -23 -57 -40 -59 -70 -13 -169 85 -184 24 -3
199 -5 389 -3 388 3 386 3 417 76 13 32 14 42 2 76 -8 22 -27 49 -42 60 -28
20 -40 21 -395 23 -206 1 -381 -2 -399 -8z"/>
</g>
</svg>
