<?xml version="1.0" encoding="utf-8"?>
<svg version="1.0" width="512.000000pt" height="512.000000pt" viewBox="0 0 512.000000 512.000000" preserveAspectRatio="xMidYMid meet" xmlns="http://www.w3.org/2000/svg">
  <g transform="translate(0.000000,512.000000) scale(0.100000,-0.100000)" fill="#000000" stroke="none">
    <path d="M2453 5102 c-89 -32 -160 -96 -202 -182 -22 -46 -26 -69 -26 -140 0 -71 4 -94 27 -142 34 -74 99 -137 171 -168 l57 -25 -2 -90 -3 -90 -65 -7 c-268 -31 -522 -113 -719 -232 -32 -20 -61 -36 -64 -36 -3 0 -7 64 -9 143 -3 123 -7 148 -26 188 -35 71 -84 122 -154 160 l-63 34 -266 3 -265 3 -12 33 c-22 59 -72 123 -125 160 -179 123 -413 57 -505 -143 -38 -80 -37 -192 0 -273 32 -69 96 -136 163 -169 43 -21 64 -24 150 -24 92 0 104 2 153 30 66 36 135 111 158 170 l17 45 241 0 c231 0 243 -1 281 -23 22 -13 49 -40 62 -62 21 -37 23 -52 23 -224 l0 -184 -108 -111 c-267 -276 -431 -619 -473 -990 l-12 -106 -92 0 -91 0 -22 48 c-32 71 -82 124 -154 163 -58 32 -69 34 -153 34 -76 0 -99 -4 -145 -26 -70 -33 -132 -95 -167 -167 -24 -49 -28 -69 -28 -142 0 -73 4 -93 28 -142 35 -72 97 -134 167 -167 46 -22 69 -26 140 -26 76 0 93 4 152 33 75 37 126 89 160 164 l22 48 91 0 92 0 12 -106 c42 -371 206 -714 473 -990 l108 -111 0 -184 c0 -172 -2 -187 -23 -224 -13 -22 -40 -49 -62 -62 -38 -22 -50 -23 -281 -23 l-241 0 -17 45 c-23 60 -97 140 -160 173 -45 24 -62 27 -151 27 -84 0 -107 -4 -146 -23 -74 -36 -125 -87 -161 -160 -29 -59 -33 -76 -33 -147 1 -93 28 -165 90 -233 45 -51 138 -98 209 -107 146 -19 307 81 358 221 l12 33 265 3 266 3 63 34 c70 38 119 89 154 160 19 40 23 65 26 189 2 78 6 142 9 142 3 0 32 -16 64 -36 197 -119 451 -201 719 -232 l65 -7 3 -90 2 -90 -54 -23 c-79 -35 -130 -83 -168 -160 -29 -59 -33 -76 -33 -152 0 -71 4 -94 26 -140 33 -69 97 -133 169 -168 47 -23 68 -27 140 -27 71 0 94 4 141 26 72 34 134 96 168 168 22 47 26 70 26 146 0 84 -2 95 -34 153 -39 72 -92 122 -163 154 l-48 22 0 91 0 92 73 7 c123 12 272 45 393 87 111 38 275 115 339 158 17 12 33 21 37 21 3 0 8 -62 10 -137 3 -123 6 -144 29 -193 36 -77 77 -121 151 -161 l63 -34 266 -3 266 -3 22 -54 c30 -72 120 -156 193 -181 128 -44 273 -10 363 87 67 72 88 126 89 229 1 77 -2 92 -32 152 -40 81 -102 139 -181 169 -83 31 -205 24 -279 -16 -66 -36 -135 -110 -158 -170 l-17 -45 -237 0 c-228 0 -238 1 -280 23 -30 16 -51 37 -67 67 -22 40 -23 55 -23 223 l0 180 113 116 c122 126 228 274 304 424 82 165 152 410 169 590 l7 77 93 0 93 0 24 -54 c32 -69 94 -131 166 -165 47 -22 70 -26 141 -26 73 0 93 4 141 28 67 32 142 109 172 175 16 36 21 67 22 132 0 73 -4 93 -28 142 -35 72 -97 134 -167 167 -46 22 -69 26 -140 26 -76 0 -93 -4 -152 -33 -76 -37 -120 -83 -155 -159 l-24 -53 -93 0 -93 0 -7 77 c-17 180 -87 425 -169 590 -76 150 -182 298 -304 424 l-113 116 0 180 c0 168 1 183 23 223 16 30 37 51 67 67 42 22 52 23 280 23 l237 0 17 -45 c23 -60 92 -134 158 -170 74 -40 196 -47 279 -16 79 30 141 88 181 169 30 60 33 75 32 152 -1 103 -22 157 -89 229 -90 97 -235 131 -363 87 -73 -25 -163 -109 -193 -181 l-22 -54 -266 -3 -266 -3 -63 -34 c-74 -40 -115 -84 -151 -161 -23 -49 -26 -70 -29 -192 -2 -76 -6 -138 -10 -138 -3 0 -26 13 -51 29 -72 46 -247 126 -350 160 -104 34 -256 66 -368 77 l-73 7 0 92 0 91 48 22 c71 32 124 82 163 154 32 58 34 69 34 153 0 76 -4 99 -26 146 -55 117 -163 189 -293 196 -51 3 -85 -2 -123 -15z m157 -162 c41 -11 94 -61 109 -103 17 -43 13 -94 -9 -137 -28 -55 -72 -83 -139 -88 -191 -12 -251 240 -76 319 46 21 66 23 115 9z m-2003 -361 c70 -44 96 -162 50 -230 -35 -53 -82 -79 -140 -79 -116 0 -197 100 -167 210 30 111 158 160 257 99z m4045 21 c80 -22 137 -109 125 -186 -25 -152 -218 -197 -310 -72 -27 36 -34 125 -14 164 20 39 65 79 102 92 39 14 53 14 97 2z m-1952 -514 c227 -13 500 -108 710 -249 335 -223 575 -579 655 -971 36 -181 36 -431 0 -612 -120 -588 -595 -1068 -1182 -1194 -508 -109 -1034 47 -1405 417 -123 122 -211 244 -288 398 -113 227 -160 428 -160 685 0 257 47 458 160 685 242 484 725 808 1259 844 58 4 120 6 136 4 17 -1 68 -4 115 -7z m-2280 -1376 c61 -31 85 -73 85 -150 0 -52 -5 -72 -23 -98 -29 -40 -89 -72 -137 -72 -108 0 -196 110 -166 210 32 109 143 160 241 110z m4423 6 c44 -18 95 -78 103 -121 19 -104 -64 -205 -169 -205 -52 0 -119 39 -144 85 -79 140 63 303 210 241z m-4242 -1889 c53 -35 79 -82 79 -140 0 -117 -100 -197 -211 -167 -108 29 -157 154 -100 253 41 72 163 101 232 54z m4086 6 c73 -34 109 -129 79 -208 -46 -120 -195 -149 -281 -54 -40 45 -49 73 -42 136 12 113 136 178 244 126z m-2029 -352 c91 -64 95 -192 9 -268 -116 -102 -302 7 -273 161 9 47 44 95 86 118 48 26 134 21 178 -11z" style="fill: rgb(171, 144, 228);"/>
    <path d="M2469 3919 c-111 -9 -192 -31 -306 -84 -109 -51 -161 -86 -244 -162 -107 -100 -190 -224 -243 -364 -30 -80 -60 -231 -51 -259 11 -34 46 -60 82 -60 53 0 76 31 96 130 41 208 156 384 329 501 129 88 266 129 434 129 341 0 637 -225 734 -560 18 -63 23 -113 29 -305 7 -258 13 -279 87 -345 56 -49 107 -66 187 -61 28 2 67 47 67 78 0 45 -26 71 -86 89 -33 9 -60 24 -68 37 -11 16 -15 77 -19 232 -4 184 -7 222 -30 306 -105 397 -449 679 -857 701 -30 2 -94 0 -141 -3z" style="fill: rgb(171, 144, 228);"/>
    <path d="M2390 3557 c-101 -31 -185 -83 -263 -166 -101 -108 -150 -224 -163 -388 -11 -138 -56 -183 -182 -183 -91 0 -134 -17 -152 -59 -11 -28 -11 -37 3 -66 21 -43 40 -48 170 -43 90 3 108 7 155 33 113 62 157 137 177 305 20 175 71 268 191 350 125 87 315 93 450 14 59 -35 141 -125 169 -187 37 -80 45 -142 45 -339 0 -131 4 -197 16 -241 49 -189 199 -354 377 -417 78 -28 197 -43 230 -31 39 15 61 54 53 96 -9 46 -35 61 -129 74 -152 21 -268 104 -334 239 l-38 76 -6 235 c-6 201 -10 246 -27 301 -59 180 -202 329 -375 390 -96 34 -267 38 -367 7z" style="fill: rgb(171, 144, 228);"/>
    <path d="M2452 3214 c-95 -47 -135 -117 -150 -264 -16 -144 -60 -240 -153 -331 -88 -86 -174 -125 -309 -140 -72 -8 -88 -13 -107 -35 -30 -33 -29 -76 1 -111 23 -26 29 -28 96 -26 196 7 386 107 508 268 82 110 121 219 138 389 10 98 77 137 141 82 27 -24 28 -27 25 -110 -4 -111 -40 -255 -90 -355 -129 -257 -343 -411 -614 -443 -91 -11 -102 -14 -124 -41 -28 -33 -29 -47 -9 -86 23 -46 59 -54 166 -41 201 24 375 108 527 254 181 174 283 390 312 659 17 154 -3 223 -84 294 -78 69 -182 83 -274 37z" style="fill: rgb(171, 144, 228);"/>
    <path d="M2772 2293 c-7 -3 -19 -18 -28 -35 -25 -48 -10 -83 70 -163 127 -127 287 -201 457 -212 84 -6 88 -5 113 20 48 48 27 128 -36 141 -13 3 -50 7 -83 10 -129 11 -259 80 -357 186 -47 52 -60 60 -89 59 -19 0 -40 -3 -47 -6z" style="fill: rgb(171, 144, 228);"/>
    <path d="M2530 1996 c-116 -61 -327 -116 -441 -116 -65 0 -95 -13 -114 -50 -18 -35 -13 -64 18 -97 17 -19 31 -23 86 -23 137 0 336 46 480 111 l64 29 65 -62 c126 -117 336 -231 452 -245 43 -5 51 -3 74 20 34 34 35 85 3 115 -13 12 -48 29 -78 38 -121 36 -243 110 -353 214 -39 37 -81 72 -93 79 -36 19 -113 12 -163 -13z" style="fill: rgb(171, 144, 228);"/>
    <path d="M2410 1625 c-81 -31 -194 -55 -255 -55 -89 0 -137 -89 -80 -145 20 -21 34 -25 83 -25 79 0 159 15 269 51 103 34 100 34 178 -30 81 -67 239 -141 301 -141 39 0 78 42 78 83 0 47 -24 72 -88 93 -75 25 -113 46 -201 112 -117 88 -172 99 -285 57z" style="fill: rgb(171, 144, 228);"/>
  </g>
</svg>