<?xml version="1.0" encoding="utf-8"?>
<svg version="1.0" width="512.000000pt" height="512.000000pt" viewBox="0 0 512.000000 512.000000" preserveAspectRatio="xMidYMid meet" xmlns="http://www.w3.org/2000/svg">
  <g transform="translate(0.000000,512.000000) scale(0.100000,-0.100000)" fill="#000000" stroke="none">
    <path d="M423 5021 c-105 -39 -180 -107 -231 -211 -25 -50 -27 -65 -27 -170 0 -107 2 -119 29 -175 38 -76 114 -153 190 -190 50 -24 76 -30 153 -33 106 -5 169 11 242 60 l43 29 57 -44 c31 -24 191 -146 356 -272 165 -125 304 -231 308 -235 5 -4 2 -27 -6 -51 l-15 -44 -282 0 -283 0 -12 42 c-29 98 -111 190 -215 241 -50 25 -65 27 -170 27 -107 0 -119 -2 -175 -29 -77 -38 -153 -114 -191 -191 -27 -56 -29 -68 -29 -175 0 -107 2 -119 29 -175 38 -76 114 -153 190 -190 50 -24 76 -30 153 -33 106 -5 169 11 241 59 l44 29 115 -87 c63 -49 124 -96 136 -105 l22 -18 -22 -17 c-12 -10 -73 -57 -136 -106 l-115 -87 -44 29 c-72 48 -135 64 -241 59 -77 -3 -103 -9 -153 -33 -76 -37 -152 -114 -190 -190 -27 -56 -29 -68 -29 -175 0 -107 2 -119 29 -175 38 -76 114 -153 190 -190 50 -24 76 -30 153 -33 106 -5 169 11 241 59 l44 29 115 -87 c63 -49 124 -96 136 -105 l22 -18 -22 -17 c-12 -10 -73 -57 -136 -106 l-115 -87 -44 29 c-72 48 -135 64 -241 59 -77 -3 -103 -9 -153 -33 -76 -37 -152 -114 -190 -190 -27 -56 -29 -68 -29 -175 0 -107 2 -119 29 -175 38 -77 114 -153 191 -191 56 -27 68 -29 175 -29 105 0 120 2 170 27 104 51 186 143 215 241 l12 42 283 0 282 0 15 -44 c8 -24 11 -47 6 -51 -4 -4 -143 -110 -308 -235 -165 -126 -325 -248 -356 -272 l-57 -44 -43 29 c-73 49 -136 65 -242 60 -77 -3 -103 -9 -153 -33 -76 -37 -152 -114 -190 -190 -27 -56 -29 -68 -29 -175 0 -107 2 -119 29 -175 38 -77 114 -153 191 -191 56 -27 68 -29 175 -29 107 0 119 2 175 29 76 38 153 114 190 190 38 78 47 214 20 296 -9 28 -13 55 -9 59 5 5 144 111 309 236 165 126 325 248 356 272 l57 44 43 -29 c73 -49 136 -65 242 -60 73 3 103 10 147 31 103 49 186 142 215 240 l12 42 202 3 201 2 0 -110 c0 -124 12 -164 63 -219 18 -18 50 -42 72 -52 50 -23 151 -25 203 -3 76 31 141 120 142 192 l0 32 57 0 58 0 480 -480 480 -480 105 -1 105 0 30 -47 c47 -73 102 -106 185 -110 84 -5 130 9 183 57 55 49 77 101 77 181 0 80 -22 132 -77 181 -53 48 -99 62 -183 57 -83 -4 -138 -37 -185 -110 l-30 -47 -60 0 -60 -1 -480 480 -480 480 -103 0 -102 0 0 120 0 120 177 0 178 0 320 -320 321 -320 144 -1 145 0 30 -47 c47 -73 102 -106 185 -110 84 -5 130 9 183 57 55 49 77 101 77 181 0 104 -53 187 -142 224 -51 22 -153 20 -203 -3 -41 -18 -98 -75 -117 -117 -11 -23 -16 -24 -112 -24 l-101 0 -320 320 -321 320 -222 0 -222 0 0 120 0 120 337 0 337 0 161 -160 161 -160 145 -1 144 0 30 -47 c47 -73 102 -106 185 -110 84 -5 130 9 183 57 55 49 77 101 77 181 0 80 -22 132 -77 181 -53 48 -99 62 -183 57 -83 -4 -138 -37 -185 -110 l-30 -47 -100 0 -99 -1 -161 160 -161 160 -382 0 -382 0 0 120 0 120 643 -1 642 0 30 -47 c47 -73 102 -106 185 -110 84 -5 130 9 183 57 55 49 77 101 77 181 0 104 -53 187 -142 224 -51 22 -153 20 -203 -3 -41 -18 -98 -75 -117 -117 l-11 -24 -644 0 -643 0 0 120 0 120 382 0 382 0 161 160 161 160 99 -1 100 0 30 -47 c47 -73 102 -106 185 -110 84 -5 130 9 183 57 55 49 77 101 77 181 0 104 -53 187 -142 224 -51 22 -153 20 -203 -3 -41 -18 -98 -75 -117 -117 -11 -24 -13 -24 -156 -24 l-146 0 -161 -160 -161 -160 -337 0 -337 0 0 120 0 120 222 0 222 0 321 320 320 320 100 -1 100 0 30 -47 c47 -73 102 -106 185 -110 84 -5 130 9 183 57 55 49 77 101 77 181 0 80 -22 132 -77 181 -53 48 -99 62 -183 57 -83 -4 -138 -37 -185 -110 l-30 -47 -145 0 -144 -1 -321 -320 -320 -320 -178 0 -177 0 0 120 0 120 102 0 103 0 480 480 480 480 60 -1 60 0 30 -47 c47 -73 102 -106 185 -110 84 -5 130 9 183 57 54 48 77 101 77 179 0 103 -48 183 -135 223 -53 25 -156 25 -210 0 -41 -18 -98 -75 -117 -117 -11 -23 -15 -24 -117 -24 l-106 0 -480 -480 -480 -480 -58 0 -57 0 0 73 c-1 153 -93 247 -242 247 -74 0 -129 -23 -175 -71 -55 -58 -63 -91 -63 -259 l0 -150 -201 2 -202 3 -12 42 c-29 98 -111 190 -214 240 -44 22 -73 28 -148 31 -106 5 -169 -11 -242 -60 l-43 -29 -57 44 c-31 24 -191 146 -356 272 -165 125 -304 231 -309 236 -4 4 0 31 9 59 27 82 18 218 -20 296 -37 76 -114 152 -190 189 -52 26 -73 30 -160 33 -79 2 -111 -2 -152 -17z m225 -167 c153 -63 191 -267 71 -381 -147 -139 -389 -36 -389 167 0 90 51 169 135 213 39 21 135 21 183 1z m4122 -84 c11 -11 20 -33 20 -50 0 -17 -9 -39 -20 -50 -11 -11 -33 -20 -50 -20 -17 0 -39 9 -50 20 -11 11 -20 33 -20 50 0 17 9 39 20 50 11 11 33 20 50 20 17 0 39 -9 50 -20z m0 -720 c11 -11 20 -33 20 -50 0 -17 -9 -39 -20 -50 -11 -11 -33 -20 -50 -20 -17 0 -39 9 -50 20 -11 11 -20 33 -20 50 0 17 9 39 20 50 11 11 33 20 50 20 17 0 39 -9 50 -20z m-1770 -70 c10 -5 23 -24 29 -41 8 -23 11 -411 11 -1341 0 -1424 2 -1370 -54 -1384 -14 -3 -38 -3 -52 0 -56 14 -54 -40 -54 1385 0 886 3 1319 10 1338 19 49 65 67 110 43z m-2352 -166 c153 -63 191 -267 71 -381 -147 -139 -389 -36 -389 167 0 90 51 169 135 213 39 21 135 21 183 1z m1360 0 c85 -35 142 -120 142 -214 0 -129 -101 -230 -230 -230 -129 0 -230 101 -230 230 0 90 51 169 135 213 39 21 135 21 183 1z m-471 -343 c8 -24 11 -47 6 -51 -4 -4 -74 -58 -155 -119 l-148 -112 -147 112 c-82 61 -152 116 -157 120 -5 5 -5 20 2 36 5 15 13 36 16 46 5 16 25 17 287 15 l281 -3 15 -44z m1183 -391 l0 -440 -201 2 -202 3 -12 42 c-29 98 -111 190 -214 240 -44 22 -73 28 -148 31 -106 5 -169 -11 -241 -59 l-44 -29 -115 87 c-63 49 -124 96 -136 106 l-22 17 22 18 c12 9 73 56 136 105 l115 87 44 -29 c64 -43 128 -61 219 -61 193 0 339 113 395 308 3 9 52 12 204 12 l200 0 0 -440z m2050 250 c11 -11 20 -33 20 -50 0 -17 -9 -39 -20 -50 -11 -11 -33 -20 -50 -20 -17 0 -39 9 -50 20 -11 11 -20 33 -20 50 0 17 9 39 20 50 11 11 33 20 50 20 17 0 39 -9 50 -20z m-3382 -471 c81 -62 151 -115 155 -119 5 -4 2 -27 -6 -51 l-15 -44 -282 0 -282 0 -15 43 c-8 24 -13 45 -11 47 8 8 303 234 306 234 2 1 70 -49 150 -110z m-740 -85 c153 -63 191 -267 71 -381 -147 -139 -389 -36 -389 167 0 90 51 169 135 213 39 21 135 21 183 1z m1360 0 c85 -35 142 -120 142 -214 0 -129 -101 -230 -230 -230 -129 0 -230 101 -230 230 0 90 51 169 135 213 39 21 135 21 183 1z m2762 -164 c11 -11 20 -33 20 -50 0 -17 -9 -39 -20 -50 -11 -11 -33 -20 -50 -20 -17 0 -39 9 -50 20 -11 11 -20 33 -20 50 0 17 9 39 20 50 11 11 33 20 50 20 17 0 39 -9 50 -20z m-3233 -179 c8 -24 11 -47 6 -51 -4 -4 -74 -58 -155 -119 l-148 -112 -147 112 c-82 61 -152 116 -157 120 -5 5 -5 20 2 36 5 15 13 36 16 46 5 16 25 17 287 15 l281 -3 15 -44z m1183 -391 l0 -440 -201 2 -202 3 -12 42 c-29 98 -111 190 -214 240 -44 22 -73 28 -148 31 -106 5 -169 -11 -241 -59 l-44 -29 -115 87 c-63 49 -124 96 -136 106 l-22 17 22 18 c12 9 73 56 136 105 l115 87 44 -29 c64 -43 128 -61 219 -61 193 0 339 113 395 308 3 9 52 12 204 12 l200 0 0 -440z m-1332 -221 c81 -62 151 -115 155 -119 5 -4 2 -27 -6 -51 l-15 -44 -282 0 -282 0 -15 43 c-8 24 -13 45 -11 47 8 8 303 234 306 234 2 1 70 -49 150 -110z m3382 71 c11 -11 20 -33 20 -50 0 -17 -9 -39 -20 -50 -11 -11 -33 -20 -50 -20 -17 0 -39 9 -50 20 -11 11 -20 33 -20 50 0 17 9 39 20 50 11 11 33 20 50 20 17 0 39 -9 50 -20z m-4122 -156 c153 -63 191 -267 71 -381 -147 -139 -389 -36 -389 167 0 90 51 169 135 213 39 21 135 21 183 1z m1360 0 c85 -35 142 -120 142 -214 0 -129 -101 -230 -230 -230 -129 0 -230 101 -230 230 0 90 51 169 135 213 39 21 135 21 183 1z m2762 -564 c11 -11 20 -33 20 -50 0 -17 -9 -39 -20 -50 -43 -43 -120 -11 -120 50 0 38 32 70 70 70 17 0 39 -9 50 -20z m-4122 -476 c153 -63 191 -267 71 -381 -147 -139 -389 -36 -389 167 0 90 51 169 135 213 39 21 135 21 183 1z m4122 -244 c43 -43 11 -120 -50 -120 -38 0 -70 32 -70 70 0 38 32 70 70 70 17 0 39 -9 50 -20z" style="fill: rgb(171, 144, 228);"/>
    <path d="M2400 3200 l0 -80 80 0 80 0 0 80 0 80 -80 0 -80 0 0 -80z" style="fill: rgb(171, 144, 228);"/>
    <path d="M2400 2880 l0 -80 80 0 80 0 0 80 0 80 -80 0 -80 0 0 -80z" style="fill: rgb(171, 144, 228);"/>
    <path d="M2400 2240 l0 -80 80 0 80 0 0 80 0 80 -80 0 -80 0 0 -80z" style="fill: rgb(171, 144, 228);"/>
    <path d="M2400 1920 l0 -80 80 0 80 0 0 80 0 80 -80 0 -80 0 0 -80z" style="fill: rgb(171, 144, 228);"/>
  </g>
</svg>