<?xml version="1.0" encoding="utf-8"?>
<svg version="1.0" width="512.000000pt" height="512.000000pt" viewBox="0 0 512.000000 512.000000" preserveAspectRatio="xMidYMid meet" xmlns="http://www.w3.org/2000/svg">
  <g transform="translate(0.000000,512.000000) scale(0.100000,-0.100000)" fill="#000000" stroke="none">
    <path d="M242 4717 c-227 -227 -232 -233 -232 -273 0 -52 23 -74 76 -74 37 0 47 8 191 152 l153 153 0 -1768 0 -1767 -189 0 c-175 0 -190 -1 -215 -21 -34 -27 -37 -88 -4 -119 20 -19 34 -20 214 -20 l193 0 3 -246 3 -246 28 -24 c34 -29 66 -31 101 -3 l26 20 0 250 0 249 1218 0 1219 0 21 23 c32 34 30 89 -4 116 -26 21 -34 21 -695 21 l-669 0 0 814 0 813 108 5 c59 3 119 11 134 18 52 24 60 103 14 135 -17 13 -42 14 -137 9 -91 -5 -132 -3 -193 10 -186 42 -281 111 -501 366 -219 255 -310 337 -444 401 l-71 34 0 470 0 470 158 -158 c147 -147 160 -157 195 -157 49 0 77 28 77 77 0 36 -12 50 -233 270 -226 226 -234 233 -272 233 -39 0 -47 -7 -273 -233z m424 -1198 c83 -58 146 -121 304 -305 76 -88 164 -184 196 -213 97 -89 219 -164 312 -191 l42 -13 0 -829 0 -828 -465 0 -465 0 0 1210 c0 666 4 1210 8 1210 5 0 35 -18 68 -41z" style="fill: rgb(171, 144, 228);"/>
    <path d="M1971 4682 c-50 -25 -74 -63 -79 -126 -4 -45 -9 -58 -29 -71 -35 -24 -46 -59 -29 -100 8 -18 24 -36 35 -40 20 -6 21 -13 21 -169 0 -150 2 -165 21 -190 27 -35 86 -36 117 -3 21 22 22 33 22 190 0 153 1 167 18 167 81 0 94 131 15 154 -47 13 -46 46 0 46 72 0 106 96 51 139 -34 27 -115 28 -163 3z" style="fill: rgb(171, 144, 228);"/>
    <path d="M2367 4620 c-81 -64 -82 -517 -2 -587 29 -26 52 -28 89 -12 41 19 49 55 30 134 -22 94 -22 261 0 344 20 74 11 111 -30 130 -36 16 -58 14 -87 -9z" style="fill: rgb(171, 144, 228);"/>
    <path d="M3385 4619 c-30 -24 -30 -35 -5 -197 11 -67 11 -100 1 -175 -26 -193 -26 -191 4 -215 37 -30 71 -28 104 6 21 21 31 45 42 107 18 103 18 292 0 375 -24 107 -84 147 -146 99z" style="fill: rgb(171, 144, 228);"/>
    <path d="M2733 4585 c-27 -19 -38 -67 -22 -97 6 -13 34 -51 61 -86 l48 -62 -65 -87 c-67 -88 -77 -121 -54 -164 5 -11 22 -24 36 -30 45 -17 83 5 137 78 46 62 50 65 63 47 88 -121 102 -134 143 -134 51 0 80 27 80 76 0 27 -13 52 -58 112 -32 42 -62 83 -66 90 -4 7 14 42 48 88 40 55 56 85 56 109 0 43 -35 75 -83 75 -33 0 -42 -6 -84 -60 -25 -33 -49 -60 -52 -60 -3 0 -17 16 -30 35 -44 65 -68 85 -103 85 -19 0 -43 -7 -55 -15z" style="fill: rgb(171, 144, 228);"/>
    <path d="M3045 3781 c-114 -19 -240 -69 -331 -132 -77 -53 -188 -164 -329 -329 -73 -85 -160 -180 -194 -212 -55 -50 -61 -60 -61 -95 0 -42 17 -65 56 -77 54 -16 118 39 334 289 165 191 233 257 320 310 235 143 530 121 748 -56 l62 -50 0 -1144 0 -1145 -167 0 c-180 -1 -194 -4 -212 -53 -13 -32 3 -83 29 -97 12 -6 303 -10 781 -10 l763 0 -152 -153 c-146 -148 -152 -155 -152 -195 0 -32 6 -45 26 -61 31 -25 55 -26 92 -7 15 8 125 113 245 233 216 218 217 219 217 263 0 43 -1 44 -217 262 -120 121 -230 226 -245 234 -37 19 -61 18 -92 -7 -20 -16 -26 -29 -26 -61 0 -40 6 -47 152 -195 l152 -153 -517 0 -517 0 0 1053 1 1052 52 -60 c253 -292 424 -395 684 -412 88 -6 92 -5 117 20 33 33 34 79 3 111 -19 19 -37 24 -108 29 -103 7 -191 35 -279 87 -95 56 -153 112 -313 298 -255 296 -371 387 -569 442 -82 23 -271 34 -353 21z" style="fill: rgb(171, 144, 228);"/>
    <path d="M2623 2439 c-77 -14 -127 -64 -139 -137 -14 -88 29 -144 146 -190 41 -16 74 -34 73 -38 -5 -19 -57 -15 -84 5 -45 34 -75 42 -109 30 -62 -22 -69 -90 -14 -143 117 -114 343 -71 370 70 18 96 -25 163 -137 211 -44 19 -65 33 -51 33 12 0 41 -9 63 -21 69 -35 129 -4 129 66 0 73 -134 135 -247 114z" style="fill: rgb(171, 144, 228);"/>
    <path d="M3486 889 l-26 -20 0 -330 c0 -316 1 -330 20 -349 24 -24 91 -27 109 -6 11 13 17 13 46 0 19 -8 65 -14 103 -14 112 0 190 49 244 154 28 52 30 171 4 229 -53 120 -189 184 -328 154 l-38 -8 0 70 c0 81 -12 114 -47 130 -35 16 -57 14 -87 -10z m325 -365 c11 -10 24 -34 30 -54 31 -103 -101 -184 -182 -112 -45 40 -52 106 -14 150 44 52 119 59 166 16z" style="fill: rgb(171, 144, 228);"/>
    <path d="M1619 701 c-21 -16 -30 -17 -76 -8 -225 46 -389 -213 -253 -401 57 -79 176 -121 272 -94 31 9 39 7 54 -9 24 -26 87 -26 114 1 19 19 20 33 20 255 0 222 -1 236 -20 255 -25 25 -80 26 -111 1z m-63 -192 c29 -28 38 -65 23 -101 -12 -29 -54 -58 -83 -58 -47 0 -96 51 -96 101 0 11 16 37 35 56 30 30 40 35 67 29 18 -3 42 -16 54 -27z" style="fill: rgb(171, 144, 228);"/>
  </g>
</svg>