<?xml version="1.0" encoding="utf-8"?>
<svg role="img" viewBox="0 0 24 24" xmlns="http://www.w3.org/2000/svg">
  <title>Java</title>
  <path d="M 8.851 18.56 C 8.851 18.56 7.934 19.094 9.504 19.274 C 11.406 19.492 12.378 19.461 14.473 19.063 C 14.473 19.063 15.025 19.409 15.794 19.709 C 11.095 21.722 5.161 19.591 8.851 18.56 M 8.276 15.933 C 8.276 15.933 7.248 16.694 8.818 16.857 C 10.85 17.066 12.454 17.084 15.231 16.549 C 15.231 16.549 15.615 16.938 16.218 17.151 C 10.539 18.812 4.211 17.281 8.276 15.933 M 13.116 11.475 C 14.274 12.808 12.812 14.008 12.812 14.008 C 12.812 14.008 15.751 12.49 14.401 10.59 C 13.14 8.818 12.173 7.938 17.408 4.902 C 17.408 4.901 9.192 6.953 13.116 11.475 M 19.33 20.504 C 19.33 20.504 20.009 21.063 18.583 21.495 C 15.871 22.317 7.295 22.564 4.914 21.528 C 4.058 21.155 5.664 20.638 6.168 20.53 C 6.695 20.416 6.996 20.437 6.996 20.437 C 6.043 19.766 0.84 21.754 4.353 22.324 C 13.933 23.877 21.815 21.624 19.33 20.504 M 9.292 13.21 C 9.292 13.21 4.93 14.246 7.748 14.622 C 8.937 14.781 11.309 14.745 13.518 14.56 C 15.324 14.408 17.136 14.083 17.136 14.083 C 17.136 14.083 16.499 14.355 16.038 14.67 C 11.609 15.835 3.052 15.293 5.516 14.102 C 7.598 13.096 9.292 13.21 9.292 13.21 M 17.116 17.584 C 21.619 15.244 19.537 12.995 18.084 13.299 C 17.729 13.373 17.569 13.437 17.569 13.437 C 17.569 13.437 17.701 13.23 17.954 13.14 C 20.829 12.129 23.04 16.121 17.026 17.702 C 17.026 17.701 17.096 17.64 17.116 17.584 M 14.401 0 C 14.401 0 16.895 2.494 12.036 6.33 C 8.14 9.407 11.148 11.162 12.035 13.166 C 9.761 11.113 8.092 9.308 9.211 7.627 C 10.855 5.158 15.408 3.962 14.401 0 M 9.734 23.924 C 14.056 24.201 20.693 23.771 20.85 21.726 C 20.85 21.726 20.548 22.501 17.278 23.117 C 13.59 23.811 9.039 23.73 6.341 23.285 C 6.341 23.284 6.894 23.742 9.734 23.924" style="fill: rgb(171, 144, 228);"/>
</svg>