<?xml version="1.0" encoding="utf-8"?>
<svg version="1.0" width="512.000000pt" height="512.000000pt" viewBox="0 0 512.000000 512.000000" preserveAspectRatio="xMidYMid meet" xmlns="http://www.w3.org/2000/svg">
  <g transform="matrix(0.1, 0, 0, -0.1, 0, 512)" fill="#000000" stroke="none">
    <path d="M2030 5101 c-74 -24 -127 -52 -188 -100 -45 -36 -116 -115 -140 -156 -6 -10 -19 -10 -72 1 -304 64 -577 -127 -609 -426 l-6 -55 -80 -16 c-44 -10 -104 -27 -133 -38 -176 -70 -311 -229 -363 -428 -26 -98 -28 -268 -5 -366 9 -38 16 -72 16 -76 0 -4 -25 -17 -54 -30 -78 -32 -185 -110 -240 -174 -63 -75 -120 -188 -141 -281 -27 -121 -18 -295 22 -407 34 -99 103 -208 165 -264 l43 -39 -46 -47 c-92 -96 -140 -223 -140 -375 0 -111 12 -166 62 -270 72 -152 162 -227 335 -279 9 -3 8 -19 -3 -62 -20 -82 -20 -272 1 -353 62 -248 250 -431 502 -491 75 -18 109 -20 209 -16 70 3 147 13 184 24 l65 18 35 -70 c71 -143 230 -268 396 -310 78 -20 240 -19 319 1 143 37 303 152 371 267 l27 47 37 -57 c78 -120 219 -221 358 -257 78 -20 240 -21 318 -1 166 42 325 167 396 310 l35 70 65 -18 c37 -11 114 -21 184 -24 100 -4 134 -2 209 16 198 47 363 174 444 341 23 47 49 112 58 145 20 76 20 277 1 358 -11 43 -12 59 -3 62 173 52 261 126 336 280 46 97 60 159 60 273 0 149 -47 275 -139 371 l-46 48 34 28 c81 69 159 204 192 332 24 94 25 260 3 353 -45 193 -178 354 -364 444 -36 17 -67 32 -68 33 -2 1 4 35 13 75 24 104 22 271 -4 371 -52 197 -188 359 -362 428 -30 11 -90 28 -134 38 l-80 16 -7 61 c-3 33 -18 88 -31 121 -96 237 -320 353 -577 299 -53 -11 -66 -11 -72 -1 -44 76 -153 177 -237 220 -118 59 -280 73 -404 35 -68 -21 -177 -93 -197 -130 -10 -19 -12 -19 -47 16 -52 52 -118 92 -192 114 -83 26 -233 26 -311 1z m291 -174 c52 -21 114 -81 138 -131 21 -42 21 -45 21 -1880 l0 -1838 -49 36 c-115 85 -247 127 -401 128 -119 1 -221 -22 -320 -72 -90 -45 -113 -98 -69 -154 26 -33 83 -35 131 -6 100 62 282 80 409 40 179 -55 299 -202 299 -365 0 -178 -91 -356 -228 -444 -158 -101 -371 -96 -519 12 -85 63 -145 152 -173 257 -23 88 -65 105 -159 65 -273 -115 -568 -46 -709 165 -61 90 -84 173 -83 295 0 137 24 223 83 300 58 77 134 147 186 174 83 42 77 144 -10 166 -53 13 -194 -81 -271 -180 -37 -48 -46 -55 -77 -55 -82 0 -194 85 -244 185 -37 76 -49 136 -44 228 8 123 53 207 151 278 36 26 39 27 87 14 72 -19 189 -28 251 -20 89 12 127 77 79 137 -18 23 -27 25 -137 31 -179 9 -262 39 -350 127 -95 97 -143 221 -143 372 0 242 135 413 393 498 60 19 71 27 83 56 12 29 12 39 -2 76 -56 151 -70 301 -39 417 58 218 234 351 465 351 55 0 65 3 92 30 27 27 30 36 26 78 -15 155 66 309 190 365 58 25 161 32 227 15 l50 -13 3 -45 c4 -80 32 -177 57 -200 34 -32 92 -30 122 5 27 31 28 54 7 115 -20 55 -13 189 11 223 35 51 119 126 170 151 92 45 208 50 296 13z m781 -19 c69 -37 156 -125 192 -196 39 -78 70 -87 166 -51 169 64 335 16 418 -121 43 -72 55 -119 54 -214 -1 -74 1 -80 28 -107 25 -26 36 -29 90 -29 140 0 274 -55 358 -148 82 -91 122 -203 122 -347 0 -95 -13 -161 -51 -260 -20 -55 -21 -63 -8 -90 12 -25 30 -35 110 -65 122 -45 172 -75 236 -142 90 -95 133 -208 133 -346 0 -95 -19 -182 -57 -256 -33 -66 -126 -162 -185 -192 -54 -27 -78 -57 -78 -95 0 -45 9 -57 69 -93 123 -75 182 -170 189 -303 7 -130 -30 -237 -111 -322 -60 -62 -126 -91 -210 -91 -59 0 -71 -3 -92 -25 -28 -27 -32 -68 -12 -118 57 -135 63 -347 13 -467 -74 -182 -242 -296 -453 -308 -109 -6 -188 8 -292 49 -109 43 -147 30 -171 -61 -28 -105 -88 -194 -173 -257 -184 -135 -469 -103 -610 69 -89 108 -117 206 -124 431 l-6 167 196 0 197 0 19 -38 c44 -86 120 -134 222 -140 82 -5 153 22 205 80 50 56 67 102 67 178 0 76 -17 122 -67 178 -52 58 -123 85 -205 80 -104 -6 -177 -53 -222 -139 l-19 -39 -195 0 -195 0 0 420 0 420 262 0 263 0 106 -42 107 -43 4 -100 c3 -90 7 -108 36 -167 76 -155 242 -239 413 -210 134 23 235 99 290 217 93 198 8 431 -190 524 -50 23 -68 26 -166 26 -105 0 -113 -2 -172 -32 -34 -18 -78 -49 -98 -69 l-36 -35 -128 50 -129 51 -281 0 -281 0 0 235 0 235 585 0 c461 0 585 -3 585 -12 0 -30 53 -122 97 -169 26 -28 75 -65 108 -82 57 -30 66 -32 170 -32 100 0 116 3 171 28 77 36 154 113 191 192 25 54 28 71 28 165 0 96 -3 110 -29 165 -120 244 -444 298 -636 106 -44 -44 -100 -142 -100 -175 0 -14 -61 -16 -585 -16 l-585 0 0 230 0 230 279 0 279 0 131 51 130 50 38 -37 c21 -20 67 -51 103 -68 60 -29 73 -31 170 -31 88 0 113 4 154 23 203 93 291 327 197 527 -139 298 -569 296 -709 -3 -22 -47 -28 -74 -30 -157 l-4 -100 -107 -43 -106 -42 -263 0 -262 0 0 390 0 390 170 0 c129 0 170 -3 170 -12 1 -29 69 -105 121 -133 45 -24 65 -29 124 -29 59 0 79 5 124 29 29 16 66 45 82 65 32 38 59 114 59 165 0 51 -27 127 -59 165 -16 20 -53 49 -82 65 -71 38 -171 42 -235 8 -61 -33 -98 -67 -120 -112 l-19 -41 -168 0 -169 0 4 223 c4 245 9 271 71 335 90 95 246 111 379 40z m198 -623 c34 -34 33 -87 -3 -122 -53 -53 -137 -23 -153 54 -6 28 -2 37 30 69 32 32 41 36 69 30 17 -4 43 -18 57 -31z m544 -537 c58 -18 131 -91 146 -148 27 -101 -18 -204 -109 -252 -159 -83 -331 29 -319 208 9 142 143 233 282 192z m411 -889 c24 -6 63 -27 86 -47 96 -82 106 -214 24 -309 -46 -54 -105 -77 -184 -71 -193 14 -271 248 -125 377 63 55 121 70 199 50z m-374 -927 c133 -70 157 -235 49 -342 -105 -106 -267 -85 -340 43 -111 193 93 403 291 299z m-527 -867 c58 -53 19 -155 -60 -155 -51 0 -89 38 -89 90 0 34 6 47 28 66 37 32 86 32 121 -1z" style="fill: rgb(171, 144, 228);"/>
    <path d="M1907 4189 c-72 -24 -117 -52 -193 -119 -61 -54 -143 -100 -179 -100 -34 1 -98 36 -134 74 -29 30 -42 36 -77 36 -34 0 -47 -5 -63 -26 -30 -38 -26 -76 12 -124 76 -99 215 -147 336 -116 77 20 128 49 211 122 85 74 152 105 228 105 32 0 76 -7 97 -15 82 -35 145 -7 145 65 0 53 -23 76 -96 99 -88 27 -208 27 -287 -1z" style="fill: rgb(171, 144, 228);"/>
    <path d="M1879 3735 c-34 -18 -48 -60 -37 -102 10 -38 26 -48 88 -58 63 -10 118 -48 141 -98 24 -54 24 -91 -1 -141 -25 -52 -76 -87 -142 -97 -29 -5 -60 -17 -71 -27 -27 -28 -25 -87 4 -119 22 -23 29 -25 91 -20 122 8 214 71 275 189 24 46 27 65 28 143 0 79 -3 97 -28 147 -35 72 -120 151 -184 172 -76 24 -134 28 -164 11z" style="fill: rgb(171, 144, 228);"/>
    <path d="M883 3385 c-41 -29 -37 -113 7 -136 8 -4 50 -24 94 -45 103 -49 191 -136 240 -237 20 -39 39 -86 42 -103 6 -29 3 -33 -48 -61 -119 -68 -228 -186 -228 -248 0 -44 27 -74 73 -82 36 -6 40 -3 110 70 123 129 221 172 374 165 79 -5 102 -10 168 -42 158 -74 264 -233 265 -394 0 -86 90 -133 145 -77 48 47 29 199 -42 345 -45 94 -167 220 -260 268 -85 45 -198 72 -298 72 l-82 0 -23 70 c-33 103 -85 185 -175 276 -64 65 -98 89 -174 127 -99 50 -150 59 -188 32z" style="fill: rgb(171, 144, 228);"/>
    <path d="M1510 2219 c-191 -117 -249 -381 -126 -574 43 -66 96 -111 176 -149 60 -29 73 -31 170 -31 94 0 111 3 166 28 86 40 110 102 59 152 -28 29 -72 32 -117 9 -42 -22 -124 -29 -176 -14 -54 14 -128 80 -153 135 -40 87 -16 201 56 266 84 76 85 77 85 112 0 73 -73 108 -140 66z" style="fill: rgb(171, 144, 228);"/>
    <path d="M3720 3600 c-43 -43 -32 -112 23 -138 57 -28 117 12 117 76 0 27 -7 45 -23 60 -30 29 -89 30 -117 2z" style="fill: rgb(171, 144, 228);"/>
    <path d="M4142 2707 c-33 -35 -30 -99 5 -127 56 -43 135 -5 135 65 0 76 -90 116 -140 62z" style="fill: rgb(171, 144, 228);"/>
    <path d="M3740 1817 c-32 -16 -54 -61 -46 -93 24 -93 166 -82 166 13 0 45 -9 62 -41 78 -34 18 -47 18 -79 2z" style="fill: rgb(171, 144, 228);"/>
  </g>
</svg>