<?xml version="1.0" standalone="no"?>
<!DOCTYPE svg PUBLIC "-//W3C//DTD SVG 20010904//EN"
 "http://www.w3.org/TR/2001/REC-SVG-20010904/DTD/svg10.dtd">
<svg version="1.0" xmlns="http://www.w3.org/2000/svg"
 width="512.000000pt" height="512.000000pt" viewBox="0 0 512.000000 512.000000"
 preserveAspectRatio="xMidYMid meet">

<g transform="translate(0.000000,512.000000) scale(0.100000,-0.100000)"
fill="#000000" stroke="none">
<path d="M450 5101 c-124 -17 -239 -77 -319 -167 -52 -58 -107 -168 -121 -243
-14 -77 -14 -1513 1 -1583 35 -167 166 -316 335 -380 l59 -23 767 -3 c665 -2
776 -1 834 13 177 41 327 182 378 354 14 47 16 128 16 566 0 475 -1 513 -18
528 -32 29 -67 31 -98 4 l-29 -25 -5 -514 c-5 -504 -5 -514 -27 -561 -48 -103
-126 -170 -234 -201 -50 -15 -141 -16 -810 -14 l-754 3 -66 32 c-79 39 -140
102 -177 181 l-27 57 0 780 0 780 26 55 c56 118 154 190 285 210 47 7 306 10
785 8 l714 -3 60 -24 c83 -33 174 -125 203 -204 18 -48 22 -79 22 -182 0 -127
8 -169 38 -191 25 -20 65 -17 90 6 21 20 22 29 22 169 0 106 -5 163 -16 202
-49 166 -168 291 -335 351 l-64 23 -740 1 c-407 1 -765 -1 -795 -5z"/>
<path d="M3155 5100 c-139 -17 -295 -122 -368 -247 -15 -27 -36 -77 -47 -112
-19 -61 -20 -93 -20 -841 0 -747 1 -780 20 -841 38 -125 130 -234 248 -297
104 -56 152 -62 504 -62 174 0 324 3 333 6 24 10 46 60 39 89 -13 54 -22 55
-364 55 -349 0 -382 4 -472 62 -53 33 -93 79 -129 148 l-24 45 -3 781 -2 782
21 58 c30 80 121 171 204 205 l60 24 714 3 c479 2 738 -1 785 -8 131 -20 229
-92 285 -210 l26 -55 0 -780 0 -780 -27 -57 c-37 -79 -98 -142 -177 -181 l-65
-32 -319 -5 -319 -5 -19 -24 c-26 -32 -24 -67 6 -97 l26 -25 322 3 c302 4 326
5 381 26 168 62 300 213 335 380 15 70 15 1506 1 1583 -14 75 -69 185 -121
243 -55 63 -144 120 -228 148 -66 22 -72 22 -801 24 -404 1 -766 -2 -805 -6z"/>
<path d="M1150 4270 c-18 -18 -20 -33 -20 -154 l0 -134 -141 -4 c-134 -3 -142
-4 -160 -27 -25 -30 -24 -62 2 -95 20 -26 21 -26 160 -26 l139 0 0 -139 c0
-139 0 -140 26 -160 30 -24 43 -26 77 -10 39 18 47 50 47 184 l0 125 135 0
c122 0 137 2 155 20 30 30 27 83 -6 109 -24 19 -40 21 -155 21 l-129 0 0 129
c0 115 -2 131 -21 155 -26 33 -79 36 -109 6z"/>
<path d="M3547 3960 c-34 -27 -37 -80 -7 -110 19 -19 33 -20 369 -20 l350 0
20 26 c26 33 27 65 2 95 l-19 24 -344 3 c-337 3 -345 2 -371 -18z"/>
<path d="M415 2410 c-22 -5 -60 -16 -85 -25 -150 -53 -285 -212 -319 -373 -15
-70 -15 -1506 -1 -1583 14 -75 69 -185 121 -243 57 -65 146 -121 234 -149 67
-21 85 -22 452 -22 380 0 383 0 404 22 27 27 29 75 4 103 -17 19 -30 20 -359
20 -190 0 -370 5 -406 11 -125 20 -224 94 -279 209 l-26 55 0 780 0 780 27 57
c37 79 98 142 177 181 l66 32 754 3 c669 2 760 1 810 -14 113 -32 192 -103
237 -212 l24 -57 0 -767 c0 -762 0 -768 -22 -825 -30 -80 -121 -171 -203 -203
-56 -22 -79 -24 -327 -29 -252 -6 -268 -7 -282 -26 -32 -41 -14 -95 38 -115
34 -13 382 -13 496 0 201 23 369 162 430 359 19 61 20 93 20 841 0 747 -1 780
-20 841 -38 125 -130 234 -248 297 -116 62 -111 62 -932 61 -410 -1 -763 -5
-785 -9z"/>
<path d="M3106 2404 c-170 -41 -315 -177 -366 -343 -19 -61 -20 -94 -20 -841
0 -748 1 -780 20 -841 43 -139 134 -245 265 -310 118 -58 156 -61 977 -57 704
4 714 4 779 26 84 28 173 85 228 148 52 58 107 168 121 243 14 77 14 1513 -1
1583 -35 167 -166 316 -335 380 l-59 23 -775 2 c-645 1 -785 -1 -834 -13z
m1646 -166 c79 -37 142 -98 181 -177 l32 -66 0 -780 0 -780 -26 -55 c-56 -118
-154 -190 -285 -210 -47 -7 -306 -10 -785 -8 l-714 3 -60 24 c-83 34 -174 125
-204 205 l-21 58 2 782 3 781 24 45 c54 102 119 159 220 191 52 17 107 18 816
16 l760 -2 57 -27z"/>
<path d="M3546 1469 c-33 -26 -36 -79 -6 -109 19 -19 33 -20 365 -20 l346 0
24 25 c14 13 25 36 25 50 0 14 -11 37 -25 50 l-24 25 -339 0 c-328 0 -340 -1
-366 -21z"/>
<path d="M3540 1190 c-30 -30 -27 -83 7 -110 26 -20 34 -21 371 -18 l344 3 19
24 c25 30 24 62 -2 95 l-20 26 -350 0 c-336 0 -350 -1 -369 -20z"/>
<path d="M927 1553 c-8 -10 -19 -30 -22 -46 -7 -25 2 -37 89 -125 53 -54 96
-102 96 -107 0 -5 -43 -53 -96 -107 -87 -88 -96 -100 -89 -125 10 -43 34 -63
73 -63 31 0 47 12 131 95 l97 95 94 -95 c81 -81 99 -95 127 -95 40 0 73 33 73
73 0 24 -18 48 -95 126 l-94 96 94 96 c80 80 95 101 95 128 0 41 -31 71 -73
71 -28 0 -46 -14 -127 -95 l-94 -95 -97 95 c-84 83 -100 95 -131 95 -21 0 -41
-7 -51 -17z"/>
</g>
</svg>
