<?xml version="1.0" encoding="utf-8"?>
<svg version="1.0" width="512.000000pt" height="512.000000pt" viewBox="0 0 512.000000 512.000000" preserveAspectRatio="xMidYMid meet" xmlns="http://www.w3.org/2000/svg">
  <g transform="translate(0.000000,512.000000) scale(0.100000,-0.100000)" fill="#000000" stroke="none">
    <path d="M2428 5110 c-72 -12 -145 -38 -233 -83 -116 -60 -255 -199 -313 -317 -65 -131 -82 -214 -82 -400 0 -156 0 -157 -31 -214 -79 -146 -8 -322 152 -376 52 -18 52 -18 74 -87 31 -100 72 -168 143 -242 l62 -66 0 -66 c0 -44 -4 -69 -12 -72 -7 -3 -166 -64 -353 -137 -187 -73 -362 -144 -390 -158 -68 -36 -184 -155 -218 -224 -55 -108 -57 -130 -57 -555 l0 -393 -180 0 -180 0 0 478 0 477 168 220 169 220 80 -3 c66 -3 90 0 129 18 218 96 220 402 4 499 -138 62 -317 -16 -365 -158 -23 -69 -16 -163 15 -219 l22 -40 -186 -243 -186 -244 0 -501 0 -502 -87 -4 c-100 -5 -140 -21 -175 -70 -22 -32 -23 -40 -26 -283 -3 -248 -3 -251 20 -285 29 -42 83 -80 114 -80 l23 0 3 -449 c3 -436 4 -450 24 -477 11 -15 33 -37 48 -48 27 -21 36 -21 917 -24 l890 -2 24 24 c32 32 32 70 0 101 l-24 25 -866 0 -865 0 0 425 0 425 1880 0 1880 0 0 -425 0 -425 -865 0 -866 0 -24 -25 c-32 -31 -32 -69 0 -101 l24 -24 890 2 c881 3 890 3 917 24 15 11 37 33 48 48 20 27 21 41 24 477 l3 449 23 0 c31 0 85 38 114 80 23 34 23 37 20 285 -3 243 -4 251 -26 283 -35 49 -75 65 -174 70 l-88 4 0 502 0 501 -186 244 -186 243 22 40 c31 56 38 150 15 219 -49 145 -230 222 -370 155 -216 -102 -204 -416 18 -501 36 -13 65 -16 123 -13 l75 5 170 -221 169 -221 0 -477 0 -478 -180 0 -180 0 0 124 c0 123 0 125 -26 145 -35 27 -57 26 -91 -3 -27 -24 -28 -27 -31 -145 l-4 -121 -159 0 -159 0 0 305 0 306 -25 24 c-31 32 -69 32 -100 0 l-25 -24 0 -306 0 -305 -228 0 -228 0 -64 380 c-57 338 -62 383 -50 406 11 19 19 24 35 18 11 -3 40 -9 65 -11 71 -7 88 13 197 231 52 105 96 192 97 193 1 1 100 -36 221 -83 236 -92 291 -124 350 -204 54 -74 75 -146 75 -261 0 -103 9 -144 38 -165 26 -21 66 -16 90 9 20 21 22 34 22 148 0 137 -13 199 -57 287 -34 69 -150 188 -218 224 -27 14 -189 80 -360 146 -170 66 -329 128 -352 137 l-43 17 0 79 c0 77 0 78 34 104 67 51 146 185 167 286 10 44 13 47 47 53 74 11 163 94 191 175 21 64 14 142 -19 207 -29 57 -30 63 -30 204 0 204 -28 315 -111 458 -44 73 -178 207 -251 251 -158 92 -349 130 -520 101z m330 -179 c254 -93 402 -311 402 -593 0 -75 -3 -99 -12 -96 -7 3 -14 14 -16 25 -2 11 -44 66 -95 122 -150 164 -151 164 -309 82 -198 -104 -377 -151 -570 -151 -108 0 -145 -12 -169 -57 -7 -13 -18 -23 -26 -23 -19 0 -18 194 3 274 54 211 241 393 454 441 102 23 236 14 338 -24z m232 -926 c0 -252 -8 -316 -49 -400 -131 -265 -493 -318 -701 -104 -99 102 -120 181 -120 460 l0 206 108 6 c122 7 222 26 337 64 87 28 202 80 250 111 l30 20 73 -71 72 -71 0 -221z m-1020 -35 c0 -61 -4 -110 -9 -110 -17 0 -68 59 -73 85 -3 14 -3 36 0 50 5 26 56 85 73 85 5 0 9 -49 9 -110z m1221 81 c51 -51 34 -146 -32 -181 -18 -10 -19 -6 -19 100 0 72 4 110 11 110 6 0 24 -13 40 -29z m-1882 -565 c41 -22 61 -59 61 -112 0 -39 -5 -51 -34 -80 -29 -29 -41 -34 -80 -34 -53 0 -90 20 -112 61 -55 107 58 220 165 165z m2621 -2 c55 -33 76 -105 46 -163 -22 -41 -59 -61 -112 -61 -39 0 -51 5 -80 34 -29 29 -34 41 -34 80 0 27 7 58 16 72 34 52 110 69 164 38z m-1500 -255 c57 -14 210 -10 270 6 30 8 58 15 63 15 4 0 7 -19 7 -41 0 -38 -10 -54 -102 -170 -57 -71 -106 -127 -109 -126 -4 1 -52 58 -108 127 -93 115 -101 128 -101 168 0 40 2 43 23 36 12 -4 38 -11 57 -15z m-94 -286 c48 -60 94 -115 101 -125 13 -14 5 -23 -71 -77 -48 -34 -91 -61 -96 -61 -9 0 -160 290 -160 308 0 5 30 21 68 35 37 14 68 26 69 26 1 1 41 -47 89 -106z m657 60 c9 -3 17 -7 17 -9 0 -13 -156 -314 -163 -314 -5 0 -47 27 -93 61 -74 53 -83 63 -72 77 18 23 93 116 146 179 l43 52 52 -21 c29 -11 60 -23 70 -25z m-933 -254 c109 -220 129 -243 199 -236 25 2 55 8 66 11 16 6 24 1 35 -18 12 -23 7 -67 -51 -406 l-64 -380 -227 0 -228 0 0 305 0 306 -25 24 c-13 14 -36 25 -50 25 -14 0 -37 -11 -50 -25 l-25 -24 0 -306 0 -305 -160 0 -160 0 0 383 c0 358 1 388 20 442 25 72 86 154 144 195 33 22 434 190 476 199 3 1 48 -85 100 -190z m552 -92 l46 -32 -16 -28 c-15 -25 -22 -27 -82 -27 -60 0 -67 2 -82 27 l-16 28 46 32 c25 18 48 33 52 33 4 0 27 -15 52 -33z m50 -577 c31 -184 57 -341 58 -347 0 -10 -39 -13 -161 -13 l-161 0 4 28 c2 15 29 172 59 350 l54 323 45 -3 45 -3 57 -335z m1936 -722 l2 -208 -2040 0 -2040 0 0 203 c0 112 3 207 7 210 3 4 920 6 2037 5 l2031 -3 3 -207z" style="fill: rgb(171, 144, 228);"/>
  </g>
</svg>