<svg id="svg" version="1.1" xmlns="http://www.w3.org/2000/svg" xmlns:xlink="http://www.w3.org/1999/xlink" width="400" height="400.8048289738431" viewBox="0, 0, 400,400.8048289738431"><g id="svgg"><path id="path0" d="M192.200 86.048 C 191.320 86.249,189.700 86.608,188.600 86.844 C 185.611 87.487,182.341 88.493,180.000 89.490 C 176.766 90.867,174.097 92.219,172.528 93.275 C 171.608 93.894,170.755 94.400,170.633 94.400 C 170.510 94.400,170.092 94.660,169.705 94.978 C 169.317 95.295,167.906 96.367,166.570 97.359 C 163.532 99.614,106.592 156.599,104.379 159.600 C 103.486 160.810,102.496 162.117,102.178 162.505 C 101.860 162.892,101.600 163.310,101.600 163.433 C 101.600 163.555,101.097 164.408,100.483 165.328 C 99.452 166.869,97.106 171.513,96.405 173.400 C 96.241 173.840,95.923 174.650,95.699 175.200 C 95.320 176.128,95.005 177.234,94.016 181.100 C 92.172 188.311,92.158 199.511,93.983 206.800 C 94.752 209.869,95.308 211.843,95.646 212.700 C 95.841 213.195,96.158 214.005,96.351 214.500 C 97.195 216.663,99.456 221.137,100.483 222.672 C 101.097 223.592,101.600 224.445,101.600 224.567 C 101.600 224.690,101.860 225.108,102.178 225.495 C 102.495 225.883,103.557 227.280,104.537 228.600 C 110.164 236.180,120.426 243.419,130.200 246.703 C 132.488 247.472,133.323 247.692,138.400 248.869 C 146.347 250.712,160.939 249.037,170.058 245.235 C 179.203 241.423,181.312 239.590,213.266 207.692 C 242.337 178.672,243.677 177.427,247.341 176.056 C 263.283 170.092,278.428 186.829,271.144 202.363 C 269.230 206.445,213.604 262.104,209.550 263.993 C 206.315 265.501,202.657 266.143,199.200 265.810 C 195.276 265.432,192.812 264.360,188.152 261.002 C 187.589 260.596,161.975 285.683,162.020 286.598 C 162.031 286.819,162.939 287.720,164.038 288.600 C 165.137 289.480,166.433 290.531,166.918 290.935 C 167.403 291.340,168.295 291.963,168.900 292.321 C 169.505 292.680,170.000 293.114,170.000 293.286 C 170.000 293.459,170.193 293.600,170.428 293.600 C 170.663 293.600,171.608 294.102,172.528 294.716 C 176.115 297.109,183.391 300.020,188.600 301.145 C 189.700 301.383,191.445 301.762,192.477 301.989 C 194.806 302.499,207.046 302.531,209.323 302.033 C 210.245 301.831,212.080 301.449,213.400 301.183 C 217.066 300.445,220.849 299.180,223.938 297.657 C 224.894 297.186,225.820 296.800,225.997 296.800 C 226.490 296.800,231.536 293.698,234.000 291.880 C 236.479 290.051,296.911 229.896,298.284 227.891 C 298.770 227.181,299.670 225.868,300.284 224.973 C 302.427 221.850,304.266 218.371,305.558 215.000 C 306.064 213.680,306.620 212.240,306.793 211.800 C 307.425 210.199,308.575 205.417,309.192 201.827 C 309.718 198.765,309.718 189.235,309.192 186.173 C 308.575 182.583,307.425 177.801,306.793 176.200 C 306.620 175.760,306.064 174.320,305.559 173.000 C 294.246 143.453,257.964 129.778,229.131 144.194 C 220.802 148.358,220.874 148.293,188.111 181.057 C 172.881 196.287,159.651 209.272,158.711 209.915 C 146.208 218.448,129.410 209.324,129.410 194.000 C 129.410 185.831,128.703 186.825,149.154 166.200 C 158.534 156.740,170.706 144.434,176.204 138.854 C 190.831 124.008,192.933 122.532,200.054 122.102 C 205.075 121.800,209.225 123.147,213.200 126.371 C 213.750 126.817,214.343 127.186,214.517 127.191 C 214.691 127.196,220.573 121.454,227.587 114.432 L 240.339 101.664 238.070 99.515 C 235.106 96.710,227.219 91.200,226.166 91.200 C 226.070 91.200,225.138 90.822,224.096 90.360 C 221.089 89.028,220.715 88.879,218.600 88.169 C 216.472 87.454,215.639 87.253,210.600 86.242 C 207.045 85.529,195.027 85.402,192.200 86.048 " stroke="none" fill="#fbfbfb" fill-rule="evenodd"></path><path id="path1" d="M199.100 31.862 C 198.715 31.970,198.400 32.223,198.400 32.423 C 198.400 32.629,195.861 32.746,192.534 32.693 C 188.129 32.623,186.627 32.725,186.501 33.100 C 186.388 33.436,185.424 33.600,183.567 33.600 C 181.989 33.600,180.800 33.772,180.800 34.000 C 180.800 34.220,179.900 34.400,178.800 34.400 C 177.700 34.400,176.800 34.580,176.800 34.800 C 176.800 35.020,176.080 35.200,175.200 35.200 C 174.320 35.200,173.600 35.380,173.600 35.600 C 173.600 35.820,172.880 36.000,172.000 36.000 C 171.120 36.000,170.400 36.180,170.400 36.400 C 170.400 36.620,169.860 36.800,169.200 36.800 C 168.540 36.800,168.000 36.980,168.000 37.200 C 168.000 37.420,167.471 37.600,166.824 37.600 C 166.177 37.600,165.536 37.780,165.400 38.000 C 165.264 38.220,164.613 38.400,163.953 38.400 C 163.255 38.400,162.856 38.567,163.000 38.800 C 163.147 39.039,162.663 39.200,161.800 39.200 C 160.937 39.200,160.453 39.361,160.600 39.600 C 160.740 39.827,160.404 40.000,159.824 40.000 C 159.261 40.000,158.800 40.180,158.800 40.400 C 158.800 40.620,158.260 40.800,157.600 40.800 C 156.940 40.800,156.400 40.980,156.400 41.200 C 156.400 41.420,156.040 41.600,155.600 41.600 C 155.160 41.600,154.800 41.780,154.800 42.000 C 154.800 42.220,154.440 42.400,154.000 42.400 C 153.560 42.400,153.200 42.580,153.200 42.800 C 153.200 43.020,152.840 43.200,152.400 43.200 C 151.960 43.200,151.600 43.380,151.600 43.600 C 151.600 43.820,151.240 44.000,150.800 44.000 C 150.360 44.000,150.000 44.180,150.000 44.400 C 150.000 44.620,149.640 44.800,149.200 44.800 C 148.760 44.800,148.400 44.980,148.400 45.200 C 148.400 45.420,148.040 45.600,147.600 45.600 C 147.160 45.600,146.800 45.780,146.800 46.000 C 146.800 46.220,146.480 46.400,146.088 46.400 C 145.697 46.400,145.117 46.760,144.800 47.200 C 144.483 47.640,143.903 48.000,143.512 48.000 C 143.120 48.000,142.800 48.180,142.800 48.400 C 142.800 48.620,142.480 48.800,142.088 48.800 C 141.697 48.800,141.117 49.160,140.800 49.600 C 140.483 50.040,139.943 50.400,139.600 50.400 C 139.257 50.400,138.717 50.760,138.400 51.200 C 138.083 51.640,137.575 52.000,137.272 52.000 C 136.969 52.000,136.217 52.540,135.600 53.200 C 134.983 53.860,134.299 54.400,134.080 54.400 C 133.861 54.400,132.762 55.300,131.639 56.400 C 130.515 57.500,129.415 58.400,129.194 58.400 C 128.647 58.400,64.800 122.271,64.800 122.818 C 64.800 123.057,63.900 124.129,62.800 125.200 C 61.700 126.271,60.800 127.358,60.800 127.614 C 60.800 127.870,60.260 128.583,59.600 129.200 C 58.940 129.817,58.400 130.569,58.400 130.872 C 58.400 131.175,58.040 131.683,57.600 132.000 C 57.160 132.317,56.800 132.857,56.800 133.200 C 56.800 133.543,56.440 134.083,56.000 134.400 C 55.560 134.717,55.200 135.297,55.200 135.688 C 55.200 136.080,55.020 136.400,54.800 136.400 C 54.580 136.400,54.400 136.720,54.400 137.112 C 54.400 137.503,54.040 138.083,53.600 138.400 C 53.160 138.717,52.800 139.297,52.800 139.688 C 52.800 140.080,52.620 140.400,52.400 140.400 C 52.180 140.400,52.000 140.760,52.000 141.200 C 52.000 141.640,51.820 142.000,51.600 142.000 C 51.380 142.000,51.200 142.360,51.200 142.800 C 51.200 143.240,51.020 143.600,50.800 143.600 C 50.580 143.600,50.400 143.960,50.400 144.400 C 50.400 144.840,50.220 145.200,50.000 145.200 C 49.780 145.200,49.600 145.560,49.600 146.000 C 49.600 146.440,49.420 146.800,49.200 146.800 C 48.980 146.800,48.800 147.160,48.800 147.600 C 48.800 148.040,48.620 148.400,48.400 148.400 C 48.180 148.400,48.000 148.760,48.000 149.200 C 48.000 149.640,47.820 150.000,47.600 150.000 C 47.380 150.000,47.200 150.540,47.200 151.200 C 47.200 151.860,47.020 152.400,46.800 152.400 C 46.580 152.400,46.400 152.749,46.400 153.176 C 46.400 153.603,46.220 154.064,46.000 154.200 C 45.780 154.336,45.600 154.887,45.600 155.424 C 45.600 155.961,45.420 156.400,45.200 156.400 C 44.980 156.400,44.800 156.929,44.800 157.576 C 44.800 158.223,44.620 158.864,44.400 159.000 C 44.180 159.136,44.000 159.676,44.000 160.200 C 44.000 160.724,43.820 161.264,43.600 161.400 C 43.380 161.536,43.200 162.076,43.200 162.600 C 43.200 163.124,43.020 163.664,42.800 163.800 C 42.580 163.936,42.400 164.757,42.400 165.624 C 42.400 166.491,42.220 167.200,42.000 167.200 C 41.780 167.200,41.600 167.920,41.600 168.800 C 41.600 169.680,41.420 170.400,41.200 170.400 C 40.980 170.400,40.800 171.300,40.800 172.400 C 40.800 173.500,40.620 174.400,40.400 174.400 C 40.171 174.400,40.000 175.600,40.000 177.200 C 40.000 178.800,39.829 180.000,39.600 180.000 C 39.341 180.000,39.200 184.933,39.200 194.000 C 39.200 203.067,39.341 208.000,39.600 208.000 C 39.829 208.000,40.000 209.200,40.000 210.800 C 40.000 212.400,40.171 213.600,40.400 213.600 C 40.620 213.600,40.800 214.500,40.800 215.600 C 40.800 216.700,40.980 217.600,41.200 217.600 C 41.420 217.600,41.600 218.320,41.600 219.200 C 41.600 220.080,41.780 220.800,42.000 220.800 C 42.220 220.800,42.400 221.520,42.400 222.400 C 42.400 223.280,42.580 224.000,42.800 224.000 C 43.020 224.000,43.200 224.540,43.200 225.200 C 43.200 225.860,43.380 226.400,43.600 226.400 C 43.820 226.400,44.000 226.940,44.000 227.600 C 44.000 228.260,44.180 228.800,44.400 228.800 C 44.620 228.800,44.800 229.340,44.800 230.000 C 44.800 230.660,44.980 231.200,45.200 231.200 C 45.420 231.200,45.600 231.740,45.600 232.400 C 45.600 233.060,45.780 233.600,46.000 233.600 C 46.220 233.600,46.400 234.050,46.400 234.600 C 46.400 235.150,46.580 235.600,46.800 235.600 C 47.020 235.600,47.200 236.039,47.200 236.576 C 47.200 237.113,47.380 237.664,47.600 237.800 C 47.820 237.936,48.000 238.397,48.000 238.824 C 48.000 239.251,48.180 239.600,48.400 239.600 C 48.620 239.600,48.800 239.960,48.800 240.400 C 48.800 240.840,48.980 241.200,49.200 241.200 C 49.420 241.200,49.600 241.560,49.600 242.000 C 49.600 242.440,49.780 242.800,50.000 242.800 C 50.220 242.800,50.400 243.160,50.400 243.600 C 50.400 244.040,50.580 244.400,50.800 244.400 C 51.020 244.400,51.200 244.760,51.200 245.200 C 51.200 245.640,51.380 246.000,51.600 246.000 C 51.820 246.000,52.000 246.360,52.000 246.800 C 52.000 247.240,52.180 247.600,52.400 247.600 C 52.620 247.600,52.800 247.920,52.800 248.312 C 52.800 248.703,53.160 249.283,53.600 249.600 C 54.040 249.917,54.400 250.497,54.400 250.888 C 54.400 251.280,54.580 251.600,54.800 251.600 C 55.020 251.600,55.200 251.920,55.200 252.312 C 55.200 252.703,55.560 253.283,56.000 253.600 C 56.440 253.917,56.800 254.457,56.800 254.800 C 56.800 255.143,57.160 255.683,57.600 256.000 C 58.040 256.317,58.400 256.825,58.400 257.128 C 58.400 257.431,58.940 258.183,59.600 258.800 C 60.260 259.417,60.800 260.130,60.800 260.386 C 60.800 260.642,61.700 261.729,62.800 262.800 C 63.900 263.871,64.800 264.945,64.800 265.185 C 64.800 265.732,96.300 297.200,96.847 297.200 C 97.067 297.200,97.136 297.380,97.000 297.600 C 96.864 297.820,97.063 298.000,97.443 298.000 C 97.823 298.000,98.022 298.111,97.886 298.248 C 97.639 298.495,98.532 299.600,98.978 299.600 C 99.108 299.600,100.336 300.803,101.707 302.274 C 106.877 307.818,128.809 329.600,129.221 329.600 C 129.458 329.600,130.529 330.500,131.600 331.600 C 132.671 332.700,133.758 333.600,134.014 333.600 C 134.270 333.600,134.983 334.140,135.600 334.800 C 136.217 335.460,136.969 336.000,137.272 336.000 C 137.575 336.000,138.083 336.360,138.400 336.800 C 138.717 337.240,139.257 337.600,139.600 337.600 C 139.943 337.600,140.483 337.960,140.800 338.400 C 141.117 338.840,141.697 339.200,142.088 339.200 C 142.480 339.200,142.800 339.380,142.800 339.600 C 142.800 339.820,143.120 340.000,143.512 340.000 C 143.903 340.000,144.483 340.360,144.800 340.800 C 145.117 341.240,145.697 341.600,146.088 341.600 C 146.480 341.600,146.800 341.780,146.800 342.000 C 146.800 342.220,147.160 342.400,147.600 342.400 C 148.040 342.400,148.400 342.580,148.400 342.800 C 148.400 343.020,148.760 343.200,149.200 343.200 C 149.640 343.200,150.000 343.380,150.000 343.600 C 150.000 343.820,150.360 344.000,150.800 344.000 C 151.240 344.000,151.600 344.180,151.600 344.400 C 151.600 344.620,151.960 344.800,152.400 344.800 C 152.840 344.800,153.200 344.980,153.200 345.200 C 153.200 345.420,153.560 345.600,154.000 345.600 C 154.440 345.600,154.800 345.780,154.800 346.000 C 154.800 346.220,155.160 346.400,155.600 346.400 C 156.040 346.400,156.400 346.580,156.400 346.800 C 156.400 347.020,156.929 347.200,157.576 347.200 C 158.223 347.200,158.864 347.380,159.000 347.600 C 159.136 347.820,159.607 348.000,160.047 348.000 C 160.487 348.000,160.736 348.180,160.600 348.400 C 160.453 348.639,160.937 348.800,161.800 348.800 C 162.663 348.800,163.147 348.961,163.000 349.200 C 162.856 349.433,163.255 349.600,163.953 349.600 C 164.613 349.600,165.264 349.780,165.400 350.000 C 165.536 350.220,166.177 350.400,166.824 350.400 C 167.471 350.400,168.000 350.580,168.000 350.800 C 168.000 351.020,168.540 351.200,169.200 351.200 C 169.860 351.200,170.400 351.380,170.400 351.600 C 170.400 351.820,171.120 352.000,172.000 352.000 C 172.880 352.000,173.600 352.180,173.600 352.400 C 173.600 352.620,174.320 352.800,175.200 352.800 C 176.080 352.800,176.800 352.980,176.800 353.200 C 176.800 353.420,177.700 353.600,178.800 353.600 C 179.900 353.600,180.800 353.780,180.800 354.000 C 180.800 354.229,182.000 354.400,183.600 354.400 C 185.200 354.400,186.400 354.571,186.400 354.800 C 186.400 355.059,191.333 355.200,200.400 355.200 C 209.467 355.200,214.400 355.059,214.400 354.800 C 214.400 354.571,215.600 354.400,217.200 354.400 C 218.800 354.400,220.000 354.229,220.000 354.000 C 220.000 353.780,220.900 353.600,222.000 353.600 C 223.100 353.600,224.000 353.420,224.000 353.200 C 224.000 352.980,224.720 352.800,225.600 352.800 C 226.480 352.800,227.200 352.620,227.200 352.400 C 227.200 352.180,227.920 352.000,228.800 352.000 C 229.680 352.000,230.400 351.820,230.400 351.600 C 230.400 351.380,230.940 351.200,231.600 351.200 C 232.260 351.200,232.800 351.020,232.800 350.800 C 232.800 350.580,233.430 350.400,234.200 350.400 C 234.970 350.400,235.600 350.220,235.600 350.000 C 235.600 349.780,236.140 349.600,236.800 349.600 C 237.460 349.600,238.000 349.420,238.000 349.200 C 238.000 348.980,238.540 348.800,239.200 348.800 C 239.860 348.800,240.400 348.620,240.400 348.400 C 240.400 348.180,240.760 348.000,241.200 348.000 C 241.640 348.000,242.000 347.820,242.000 347.600 C 242.000 347.380,242.540 347.200,243.200 347.200 C 243.860 347.200,244.400 347.020,244.400 346.800 C 244.400 346.580,244.760 346.400,245.200 346.400 C 245.640 346.400,246.000 346.220,246.000 346.000 C 246.000 345.780,246.360 345.600,246.800 345.600 C 247.240 345.600,247.600 345.420,247.600 345.200 C 247.600 344.980,247.960 344.800,248.400 344.800 C 248.840 344.800,249.200 344.620,249.200 344.400 C 249.200 344.180,249.560 344.000,250.000 344.000 C 250.440 344.000,250.800 343.820,250.800 343.600 C 250.800 343.380,251.160 343.200,251.600 343.200 C 252.040 343.200,252.400 343.020,252.400 342.800 C 252.400 342.580,252.760 342.400,253.200 342.400 C 253.640 342.400,254.000 342.220,254.000 342.000 C 254.000 341.780,254.320 341.600,254.712 341.600 C 255.103 341.600,255.683 341.240,256.000 340.800 C 256.317 340.360,256.897 340.000,257.288 340.000 C 257.680 340.000,258.000 339.820,258.000 339.600 C 258.000 339.380,258.320 339.200,258.712 339.200 C 259.103 339.200,259.683 338.840,260.000 338.400 C 260.317 337.960,260.857 337.600,261.200 337.600 C 261.543 337.600,262.083 337.240,262.400 336.800 C 262.717 336.360,263.225 336.000,263.528 336.000 C 263.831 336.000,264.583 335.460,265.200 334.800 C 265.817 334.140,266.530 333.600,266.786 333.600 C 267.042 333.600,268.129 332.700,269.200 331.600 C 270.271 330.500,271.340 329.600,271.575 329.600 C 272.134 329.600,336.000 265.734,336.000 265.175 C 336.000 264.940,336.900 263.871,338.000 262.800 C 339.100 261.729,340.000 260.642,340.000 260.386 C 340.000 260.130,340.540 259.417,341.200 258.800 C 341.860 258.183,342.400 257.431,342.400 257.128 C 342.400 256.825,342.760 256.317,343.200 256.000 C 343.640 255.683,344.000 255.143,344.000 254.800 C 344.000 254.457,344.360 253.917,344.800 253.600 C 345.240 253.283,345.600 252.703,345.600 252.312 C 345.600 251.920,345.780 251.600,346.000 251.600 C 346.220 251.600,346.400 251.280,346.400 250.888 C 346.400 250.497,346.760 249.917,347.200 249.600 C 347.640 249.283,348.000 248.703,348.000 248.312 C 348.000 247.920,348.180 247.600,348.400 247.600 C 348.620 247.600,348.800 247.240,348.800 246.800 C 348.800 246.360,348.980 246.000,349.200 246.000 C 349.420 246.000,349.600 245.640,349.600 245.200 C 349.600 244.760,349.780 244.400,350.000 244.400 C 350.220 244.400,350.400 244.040,350.400 243.600 C 350.400 243.160,350.580 242.800,350.800 242.800 C 351.020 242.800,351.200 242.440,351.200 242.000 C 351.200 241.560,351.380 241.200,351.600 241.200 C 351.820 241.200,352.000 240.840,352.000 240.400 C 352.000 239.960,352.180 239.600,352.400 239.600 C 352.620 239.600,352.800 239.251,352.800 238.824 C 352.800 238.397,352.980 237.936,353.200 237.800 C 353.420 237.664,353.600 237.124,353.600 236.600 C 353.600 236.076,353.780 235.536,354.000 235.400 C 354.220 235.264,354.400 234.803,354.400 234.376 C 354.400 233.949,354.580 233.600,354.800 233.600 C 355.020 233.600,355.200 233.060,355.200 232.400 C 355.200 231.740,355.380 231.200,355.600 231.200 C 355.820 231.200,356.000 230.660,356.000 230.000 C 356.000 229.340,356.180 228.800,356.400 228.800 C 356.620 228.800,356.800 228.260,356.800 227.600 C 356.800 226.940,356.980 226.400,357.200 226.400 C 357.420 226.400,357.600 225.860,357.600 225.200 C 357.600 224.540,357.780 224.000,358.000 224.000 C 358.220 224.000,358.400 223.280,358.400 222.400 C 358.400 221.520,358.580 220.800,358.800 220.800 C 359.020 220.800,359.200 220.080,359.200 219.200 C 359.200 218.320,359.380 217.600,359.600 217.600 C 359.820 217.600,360.000 216.700,360.000 215.600 C 360.000 214.500,360.180 213.600,360.400 213.600 C 360.629 213.600,360.800 212.400,360.800 210.800 C 360.800 209.200,360.971 208.000,361.200 208.000 C 361.450 208.000,361.600 205.600,361.600 201.600 C 361.600 197.600,361.750 195.200,362.000 195.200 C 362.220 195.200,362.400 194.840,362.400 194.400 C 362.400 193.960,362.220 193.600,362.000 193.600 C 361.749 193.600,361.600 191.067,361.600 186.800 C 361.600 182.533,361.451 180.000,361.200 180.000 C 360.971 180.000,360.800 178.800,360.800 177.200 C 360.800 175.600,360.629 174.400,360.400 174.400 C 360.180 174.400,360.000 173.500,360.000 172.400 C 360.000 171.300,359.820 170.400,359.600 170.400 C 359.380 170.400,359.200 169.680,359.200 168.800 C 359.200 167.920,359.020 167.200,358.800 167.200 C 358.580 167.200,358.400 166.491,358.400 165.624 C 358.400 164.757,358.220 163.936,358.000 163.800 C 357.780 163.664,357.600 163.124,357.600 162.600 C 357.600 162.076,357.420 161.536,357.200 161.400 C 356.980 161.264,356.800 160.724,356.800 160.200 C 356.800 159.676,356.620 159.136,356.400 159.000 C 356.180 158.864,356.000 158.223,356.000 157.576 C 356.000 156.929,355.820 156.400,355.600 156.400 C 355.380 156.400,355.200 155.961,355.200 155.424 C 355.200 154.887,355.020 154.336,354.800 154.200 C 354.580 154.064,354.400 153.603,354.400 153.176 C 354.400 152.749,354.220 152.400,354.000 152.400 C 353.780 152.400,353.600 151.860,353.600 151.200 C 353.600 150.540,353.420 150.000,353.200 150.000 C 352.980 150.000,352.800 149.640,352.800 149.200 C 352.800 148.760,352.620 148.400,352.400 148.400 C 352.180 148.400,352.000 148.040,352.000 147.600 C 352.000 147.160,351.820 146.800,351.600 146.800 C 351.380 146.800,351.200 146.440,351.200 146.000 C 351.200 145.560,351.020 145.200,350.800 145.200 C 350.580 145.200,350.400 144.840,350.400 144.400 C 350.400 143.960,350.220 143.600,350.000 143.600 C 349.780 143.600,349.600 143.240,349.600 142.800 C 349.600 142.360,349.420 142.000,349.200 142.000 C 348.980 142.000,348.800 141.640,348.800 141.200 C 348.800 140.760,348.620 140.400,348.400 140.400 C 348.180 140.400,348.000 140.080,348.000 139.688 C 348.000 139.297,347.640 138.717,347.200 138.400 C 346.760 138.083,346.400 137.503,346.400 137.112 C 346.400 136.720,346.220 136.400,346.000 136.400 C 345.780 136.400,345.600 136.080,345.600 135.688 C 345.600 135.297,345.240 134.717,344.800 134.400 C 344.360 134.083,344.000 133.543,344.000 133.200 C 344.000 132.857,343.640 132.317,343.200 132.000 C 342.760 131.683,342.400 131.175,342.400 130.872 C 342.400 130.569,341.860 129.817,341.200 129.200 C 340.540 128.583,340.000 127.870,340.000 127.614 C 340.000 127.358,339.100 126.271,338.000 125.200 C 336.900 124.129,336.000 123.053,336.000 122.809 C 336.000 122.232,272.163 58.400,271.587 58.400 C 271.346 58.400,270.271 57.500,269.200 56.400 C 268.129 55.300,267.042 54.400,266.786 54.400 C 266.530 54.400,265.817 53.860,265.200 53.200 C 264.583 52.540,263.831 52.000,263.528 52.000 C 263.225 52.000,262.717 51.640,262.400 51.200 C 262.083 50.760,261.543 50.400,261.200 50.400 C 260.857 50.400,260.317 50.040,260.000 49.600 C 259.683 49.160,259.103 48.800,258.712 48.800 C 258.320 48.800,258.000 48.620,258.000 48.400 C 258.000 48.180,257.680 48.000,257.288 48.000 C 256.897 48.000,256.317 47.640,256.000 47.200 C 255.683 46.760,255.103 46.400,254.712 46.400 C 254.320 46.400,254.000 46.220,254.000 46.000 C 254.000 45.780,253.640 45.600,253.200 45.600 C 252.760 45.600,252.400 45.420,252.400 45.200 C 252.400 44.980,252.040 44.800,251.600 44.800 C 251.160 44.800,250.800 44.620,250.800 44.400 C 250.800 44.180,250.440 44.000,250.000 44.000 C 249.560 44.000,249.200 43.820,249.200 43.600 C 249.200 43.380,248.840 43.200,248.400 43.200 C 247.960 43.200,247.600 43.020,247.600 42.800 C 247.600 42.580,247.240 42.400,246.800 42.400 C 246.360 42.400,246.000 42.220,246.000 42.000 C 246.000 41.780,245.640 41.600,245.200 41.600 C 244.760 41.600,244.400 41.420,244.400 41.200 C 244.400 40.980,243.860 40.800,243.200 40.800 C 242.540 40.800,242.000 40.620,242.000 40.400 C 242.000 40.180,241.640 40.000,241.200 40.000 C 240.760 40.000,240.400 39.820,240.400 39.600 C 240.400 39.380,239.860 39.200,239.200 39.200 C 238.540 39.200,238.000 39.020,238.000 38.800 C 238.000 38.580,237.460 38.400,236.800 38.400 C 236.140 38.400,235.600 38.220,235.600 38.000 C 235.600 37.780,234.970 37.600,234.200 37.600 C 233.430 37.600,232.800 37.420,232.800 37.200 C 232.800 36.980,232.260 36.800,231.600 36.800 C 230.940 36.800,230.400 36.620,230.400 36.400 C 230.400 36.180,229.680 36.000,228.800 36.000 C 227.920 36.000,227.200 35.820,227.200 35.600 C 227.200 35.380,226.480 35.200,225.600 35.200 C 224.720 35.200,224.000 35.020,224.000 34.800 C 224.000 34.580,223.100 34.400,222.000 34.400 C 220.900 34.400,220.000 34.220,220.000 34.000 C 220.000 33.772,218.811 33.600,217.233 33.600 C 215.376 33.600,214.412 33.436,214.299 33.100 C 214.174 32.725,212.692 32.623,208.383 32.690 C 205.038 32.742,202.536 32.620,202.398 32.396 C 202.107 31.925,200.055 31.593,199.100 31.862 M207.800 85.221 C 213.103 85.813,214.582 86.065,214.980 86.441 C 215.189 86.638,215.853 86.800,216.456 86.800 C 217.059 86.800,217.664 86.980,217.800 87.200 C 217.936 87.420,218.399 87.600,218.829 87.600 C 219.259 87.600,219.923 87.759,220.305 87.953 C 220.687 88.148,221.450 88.490,222.000 88.714 C 225.083 89.970,228.800 91.780,228.800 92.024 C 228.800 92.180,229.115 92.407,229.500 92.529 C 230.223 92.758,232.447 94.032,232.800 94.419 C 232.910 94.540,233.630 95.071,234.400 95.600 C 235.170 96.129,235.890 96.660,236.000 96.781 C 236.110 96.901,237.235 97.869,238.500 98.931 C 239.765 99.993,240.800 101.127,240.800 101.451 C 240.800 102.128,215.289 128.000,214.621 128.000 C 214.378 128.000,213.263 127.312,212.145 126.472 C 206.221 122.021,199.659 121.395,192.979 124.645 C 188.640 126.756,134.266 181.127,131.809 185.812 C 124.447 199.852,138.895 216.821,153.727 211.555 C 157.969 210.049,158.644 209.432,187.400 180.775 C 222.735 145.563,222.569 145.703,233.902 141.238 C 256.955 132.155,285.602 140.687,299.588 160.800 C 300.123 161.570,300.660 162.290,300.781 162.400 C 300.901 162.510,301.225 163.005,301.500 163.500 C 301.775 163.995,302.225 164.805,302.500 165.300 C 302.775 165.795,303.094 166.290,303.208 166.400 C 303.417 166.601,305.811 171.507,306.429 173.000 C 311.029 184.123,311.438 200.286,307.420 212.200 C 306.310 215.495,303.623 221.318,303.115 221.533 C 302.942 221.607,302.800 221.840,302.800 222.051 C 302.800 222.518,299.167 227.947,297.673 229.713 C 296.217 231.435,238.510 289.178,237.000 290.424 C 236.340 290.969,235.170 291.853,234.400 292.388 C 233.630 292.923,232.910 293.460,232.800 293.581 C 232.690 293.701,232.195 294.025,231.700 294.300 C 231.205 294.575,230.395 295.025,229.900 295.300 C 229.405 295.575,228.910 295.890,228.800 296.000 C 228.338 296.462,225.079 298.000,224.562 298.000 C 224.253 298.000,224.000 298.180,224.000 298.400 C 224.000 298.620,223.728 298.800,223.395 298.800 C 223.062 298.800,222.432 298.980,221.995 299.200 C 221.558 299.420,220.842 299.780,220.405 300.000 C 219.968 300.220,219.259 300.400,218.829 300.400 C 218.399 300.400,217.936 300.580,217.800 300.800 C 217.664 301.020,217.059 301.200,216.456 301.200 C 215.853 301.200,215.189 301.362,214.980 301.559 C 213.537 302.922,191.771 303.647,190.974 302.358 C 190.852 302.161,190.054 302.000,189.200 302.000 C 188.346 302.000,187.536 301.820,187.400 301.600 C 187.264 301.380,186.634 301.200,186.000 301.200 C 185.366 301.200,184.736 301.020,184.600 300.800 C 184.464 300.580,184.001 300.400,183.571 300.400 C 183.141 300.400,182.477 300.241,182.095 300.047 C 181.713 299.852,180.860 299.471,180.200 299.200 C 179.540 298.929,178.687 298.548,178.305 298.353 C 177.923 298.159,177.338 298.000,177.005 298.000 C 176.672 298.000,176.400 297.820,176.400 297.600 C 176.400 297.380,176.085 297.196,175.700 297.191 C 175.315 297.186,174.550 296.830,174.000 296.400 C 173.450 295.970,172.775 295.614,172.500 295.609 C 172.225 295.604,172.000 295.420,172.000 295.200 C 172.000 294.980,171.775 294.796,171.500 294.792 C 169.954 294.767,161.491 287.541,161.671 286.399 C 161.815 285.484,187.032 260.000,187.794 260.000 C 188.059 260.000,188.600 260.358,188.997 260.796 C 193.267 265.515,203.371 266.547,210.046 262.947 C 213.021 261.342,268.489 205.920,270.087 202.957 C 274.731 194.340,272.127 183.980,263.928 178.460 C 262.898 177.767,261.861 177.200,261.623 177.200 C 261.384 177.200,260.877 177.042,260.495 176.849 C 258.812 175.999,256.736 175.600,254.000 175.600 C 251.264 175.600,249.188 175.999,247.505 176.849 C 247.123 177.042,246.583 177.202,246.305 177.204 C 244.919 177.216,238.702 183.102,212.402 209.306 C 196.671 224.979,183.416 238.097,182.946 238.458 C 165.874 251.566,142.890 253.979,123.600 244.689 C 120.720 243.302,114.659 239.602,114.000 238.830 C 113.890 238.701,113.157 238.116,112.370 237.531 C 110.527 236.159,105.841 231.473,104.469 229.630 C 103.884 228.843,103.299 228.110,103.170 228.000 C 101.934 226.946,97.397 218.952,95.904 215.200 C 95.686 214.650,95.348 213.887,95.153 213.505 C 94.959 213.123,94.800 212.459,94.800 212.029 C 94.800 211.599,94.620 211.136,94.400 211.000 C 94.180 210.864,94.000 210.234,94.000 209.600 C 94.000 208.966,93.820 208.336,93.600 208.200 C 93.380 208.064,93.200 207.254,93.200 206.400 C 93.200 205.546,93.047 204.753,92.860 204.637 C 91.923 204.058,91.562 192.241,92.316 186.800 C 93.191 180.486,93.284 179.995,93.642 179.774 C 93.839 179.652,94.000 179.034,94.000 178.400 C 94.000 177.766,94.180 177.136,94.400 177.000 C 94.620 176.864,94.800 176.401,94.800 175.971 C 94.800 175.541,94.959 174.877,95.153 174.495 C 95.348 174.113,95.686 173.350,95.904 172.800 C 97.397 169.048,101.934 161.054,103.170 160.000 C 103.299 159.890,103.934 159.080,104.581 158.200 C 106.102 156.132,163.290 98.952,165.400 97.389 C 166.280 96.738,167.090 96.102,167.200 95.976 C 167.683 95.423,171.185 93.200,171.572 93.200 C 171.807 93.200,172.001 93.065,172.003 92.900 C 172.005 92.735,172.410 92.399,172.903 92.154 C 173.396 91.909,174.970 91.120,176.400 90.402 C 179.447 88.870,180.063 88.612,182.200 87.977 C 183.080 87.716,184.113 87.344,184.495 87.151 C 184.877 86.958,185.631 86.800,186.171 86.800 C 186.711 86.800,187.252 86.639,187.374 86.442 C 188.082 85.296,201.363 84.502,207.800 85.221 " stroke="none" fill="#64cc64" fill-rule="evenodd"></path><path id="path2" d="M195.107 32.690 C 195.826 32.779,196.906 32.777,197.507 32.686 C 198.108 32.595,197.520 32.522,196.200 32.524 C 194.880 32.526,194.388 32.601,195.107 32.690 M203.507 32.690 C 204.226 32.779,205.306 32.777,205.907 32.686 C 206.508 32.595,205.920 32.522,204.600 32.524 C 203.280 32.526,202.788 32.601,203.507 32.690 M198.900 85.096 C 200.165 85.175,202.235 85.175,203.500 85.096 C 204.765 85.016,203.730 84.951,201.200 84.951 C 198.670 84.951,197.635 85.016,198.900 85.096 M190.800 85.621 C 190.370 85.914,190.654 85.954,191.800 85.762 C 193.784 85.430,194.104 85.198,192.567 85.206 C 191.925 85.209,191.130 85.396,190.800 85.621 M209.600 85.600 C 211.142 86.094,211.964 86.094,211.200 85.600 C 210.870 85.387,210.150 85.227,209.600 85.246 L 208.600 85.280 209.600 85.600 M213.800 86.400 C 214.901 86.873,215.292 86.873,215.000 86.400 C 214.864 86.180,214.358 86.013,213.876 86.028 C 213.031 86.055,213.029 86.069,213.800 86.400 M226.800 90.963 C 226.800 91.043,227.250 91.403,227.800 91.763 C 228.350 92.124,228.800 92.263,228.800 92.073 C 228.800 91.884,228.350 91.523,227.800 91.273 C 227.250 91.022,226.800 90.883,226.800 90.963 M169.107 94.526 C 168.066 95.226,167.211 95.935,167.207 96.099 C 167.202 96.330,169.378 94.944,171.567 93.323 C 171.658 93.256,171.568 93.211,171.367 93.226 C 171.165 93.240,170.148 93.825,169.107 94.526 M164.991 97.698 C 162.892 99.411,161.486 100.804,161.882 100.782 C 162.236 100.761,167.122 96.402,166.791 96.401 C 166.676 96.400,165.866 96.984,164.991 97.698 M238.815 99.395 C 239.895 100.863,240.800 101.754,240.800 101.350 C 240.800 101.130,240.222 100.421,239.515 99.775 C 238.809 99.129,238.494 98.958,238.815 99.395 M224.397 118.300 L 214.600 128.200 224.500 118.403 C 229.945 113.015,234.400 108.560,234.400 108.503 C 234.400 108.220,233.501 109.101,224.397 118.300 M131.015 131.185 C 125.087 137.116,120.318 142.024,120.418 142.090 C 120.518 142.156,125.483 137.303,131.451 131.305 C 137.419 125.307,142.187 120.400,142.048 120.400 C 141.908 120.400,136.944 125.253,131.015 131.185 M197.000 122.819 C 196.442 123.071,196.685 123.107,197.800 122.938 C 198.680 122.804,199.475 122.628,199.567 122.547 C 199.910 122.244,197.768 122.471,197.000 122.819 M202.433 122.544 C 202.525 122.624,203.410 122.796,204.400 122.927 C 205.602 123.086,205.934 123.047,205.400 122.810 C 204.636 122.472,202.086 122.243,202.433 122.544 M208.800 124.140 C 208.800 124.217,209.655 124.841,210.700 125.525 C 211.745 126.210,213.050 127.069,213.600 127.434 L 214.600 128.098 213.600 127.235 C 211.434 125.364,208.800 123.666,208.800 124.140 M190.624 125.413 C 190.196 125.736,190.027 126.000,190.247 126.000 C 190.467 126.000,190.996 125.736,191.424 125.413 C 191.851 125.090,192.020 124.825,191.800 124.825 C 191.580 124.825,191.051 125.090,190.624 125.413 M178.526 137.133 C 152.003 163.673,133.420 182.400,133.606 182.400 C 133.717 182.400,146.401 169.800,161.791 154.400 C 177.182 139.000,189.657 126.400,189.513 126.400 C 189.369 126.400,184.425 131.230,178.526 137.133 M246.800 137.953 C 246.030 138.089,249.251 138.200,253.958 138.200 C 258.665 138.200,261.815 138.075,260.958 137.923 C 259.066 137.587,248.749 137.608,246.800 137.953 M242.200 138.800 C 241.181 139.238,242.232 139.238,243.600 138.800 C 244.404 138.543,244.443 138.477,243.800 138.468 C 243.360 138.462,242.640 138.611,242.200 138.800 M264.200 138.800 C 264.640 138.989,265.360 139.144,265.800 139.144 L 266.600 139.144 265.800 138.800 C 265.360 138.611,264.640 138.456,264.200 138.456 L 263.400 138.456 264.200 138.800 M281.610 144.926 C 281.726 145.052,282.499 145.614,283.328 146.177 C 284.958 147.283,285.908 147.567,284.600 146.557 C 283.752 145.902,281.253 144.539,281.610 144.926 M222.457 147.176 C 219.290 149.467,219.013 149.955,222.000 147.982 C 225.024 145.984,225.513 145.595,224.980 145.613 C 224.771 145.620,223.636 146.323,222.457 147.176 M285.744 147.509 C 286.060 148.021,288.400 149.753,288.400 149.475 C 288.400 149.376,287.739 148.791,286.932 148.175 C 286.124 147.559,285.589 147.259,285.744 147.509 M217.775 150.900 L 216.600 152.200 217.900 151.025 C 218.615 150.379,219.200 149.794,219.200 149.725 C 219.200 149.416,218.870 149.688,217.775 150.900 M289.600 150.458 C 292.589 153.437,296.525 156.902,294.600 154.858 C 293.500 153.691,291.700 151.999,290.600 151.098 C 289.500 150.198,289.050 149.909,289.600 150.458 M187.983 180.316 L 159.800 208.600 187.984 180.600 C 203.485 165.200,216.250 152.555,216.351 152.500 C 216.451 152.445,216.451 152.317,216.349 152.216 C 216.248 152.115,203.483 164.760,187.983 180.316 M105.654 156.869 C 104.913 157.711,104.463 158.387,104.654 158.371 C 105.057 158.338,107.378 155.627,107.152 155.455 C 107.068 155.391,106.394 156.027,105.654 156.869 M102.096 161.405 C 100.932 163.203,101.200 163.200,102.573 161.400 C 103.160 160.630,103.497 160.002,103.320 160.005 C 103.144 160.008,102.593 160.638,102.096 161.405 M99.853 164.791 C 98.853 166.302,98.415 167.396,99.136 166.580 C 99.692 165.952,101.279 163.200,101.086 163.200 C 100.987 163.200,100.432 163.916,99.853 164.791 M253.505 175.483 C 254.002 175.579,254.722 175.575,255.105 175.475 C 255.487 175.375,255.080 175.296,254.200 175.301 C 253.320 175.305,253.007 175.387,253.505 175.483 M248.800 176.000 C 248.267 176.345,248.267 176.388,248.800 176.388 C 249.130 176.388,249.670 176.213,250.000 176.000 C 250.533 175.655,250.533 175.612,250.000 175.612 C 249.670 175.612,249.130 175.787,248.800 176.000 M258.000 176.000 C 258.330 176.213,258.870 176.388,259.200 176.388 C 259.733 176.388,259.733 176.345,259.200 176.000 C 258.870 175.787,258.330 175.612,258.000 175.612 C 257.467 175.612,257.467 175.655,258.000 176.000 M307.612 177.600 C 307.612 177.930,307.787 178.470,308.000 178.800 C 308.345 179.333,308.388 179.333,308.388 178.800 C 308.388 178.470,308.213 177.930,308.000 177.600 C 307.655 177.067,307.612 177.067,307.612 177.600 M93.467 179.867 C 93.320 180.013,93.211 180.508,93.225 180.967 C 93.249 181.733,93.282 181.723,93.634 180.842 C 94.026 179.863,93.944 179.389,93.467 179.867 M308.434 180.400 C 308.446 180.730,308.611 181.360,308.800 181.800 L 309.144 182.600 309.166 181.800 C 309.178 181.360,309.013 180.730,308.800 180.400 C 308.455 179.867,308.415 179.867,308.434 180.400 M212.799 208.700 L 184.600 237.000 212.900 208.801 C 239.208 182.587,241.379 180.400,241.099 180.400 C 241.043 180.400,228.308 193.135,212.799 208.700 M268.400 182.128 C 268.400 182.301,268.850 183.105,269.400 183.914 C 269.950 184.723,270.400 185.244,270.400 185.072 C 270.400 184.899,269.950 184.095,269.400 183.286 C 268.850 182.477,268.400 181.956,268.400 182.128 M92.649 183.415 C 92.512 183.773,92.418 184.546,92.440 185.133 C 92.473 185.991,92.552 185.895,92.846 184.640 C 93.222 183.039,93.095 182.253,92.649 183.415 M309.438 185.400 C 309.770 187.384,310.002 187.704,309.994 186.167 C 309.991 185.525,309.804 184.730,309.579 184.400 C 309.286 183.970,309.246 184.254,309.438 185.400 M91.857 189.900 C 91.535 191.844,91.570 196.173,91.923 198.158 C 92.086 199.075,92.200 197.388,92.200 194.058 C 92.200 187.764,92.203 187.804,91.857 189.900 M129.852 189.700 C 129.142 192.351,129.812 199.775,130.871 200.983 C 131.055 201.194,130.916 200.389,130.561 199.194 C 130.092 197.613,129.957 195.901,130.068 192.911 C 130.231 188.496,130.220 188.327,129.852 189.700 M272.200 193.758 C 272.200 196.072,272.322 197.658,272.472 197.283 C 272.815 196.422,272.806 191.706,272.460 190.475 C 272.317 189.966,272.200 191.443,272.200 193.758 M310.109 194.000 C 310.109 194.990,310.187 195.395,310.282 194.900 C 310.378 194.405,310.378 193.595,310.282 193.100 C 310.187 192.605,310.109 193.010,310.109 194.000 M309.654 201.400 C 309.619 201.840,309.489 202.650,309.367 203.200 C 309.175 204.063,309.207 204.103,309.598 203.490 C 309.847 203.099,309.977 202.289,309.886 201.690 C 309.778 200.979,309.697 200.879,309.654 201.400 M92.400 203.110 C 92.400 203.793,92.577 204.462,92.794 204.596 C 93.040 204.748,93.094 204.345,92.937 203.520 C 92.600 201.751,92.400 201.599,92.400 203.110 M269.104 204.444 C 268.501 205.300,268.087 206.000,268.183 206.000 C 268.469 206.000,270.526 203.192,270.356 203.033 C 270.270 202.954,269.707 203.588,269.104 204.444 M132.444 204.000 C 132.962 205.061,136.837 209.296,137.074 209.059 C 137.151 208.982,136.437 208.127,135.488 207.160 C 134.538 206.192,133.355 204.860,132.859 204.200 C 132.122 203.220,132.045 203.184,132.444 204.000 M308.629 206.629 C 308.481 207.215,308.451 207.784,308.561 207.894 C 308.671 208.004,308.881 207.615,309.029 207.029 C 309.176 206.442,309.206 205.873,309.096 205.763 C 308.986 205.653,308.776 206.042,308.629 206.629 M93.228 207.076 C 93.213 207.558,93.380 208.064,93.600 208.200 C 94.073 208.492,94.073 208.101,93.600 207.000 C 93.269 206.229,93.255 206.231,93.228 207.076 M265.798 208.002 C 264.758 209.151,265.220 209.280,266.314 208.146 C 266.817 207.626,267.070 207.200,266.876 207.200 C 266.682 207.200,266.197 207.561,265.798 208.002 M307.800 209.600 C 307.650 210.073,307.617 210.550,307.727 210.660 C 307.837 210.770,308.050 210.473,308.200 210.000 C 308.350 209.527,308.383 209.050,308.273 208.940 C 308.163 208.830,307.950 209.127,307.800 209.600 M138.400 209.967 C 139.363 210.752,140.000 211.008,140.000 210.610 C 140.000 210.506,139.415 210.135,138.700 209.786 L 137.400 209.152 138.400 209.967 M157.500 209.829 C 156.005 210.640,156.096 210.978,157.600 210.200 C 158.260 209.859,158.800 209.494,158.800 209.390 C 158.800 209.132,158.757 209.147,157.500 209.829 M147.505 212.683 C 148.002 212.779,148.722 212.775,149.105 212.675 C 149.487 212.575,149.080 212.496,148.200 212.501 C 147.320 212.505,147.007 212.587,147.505 212.683 M98.800 221.329 C 98.800 221.694,100.845 224.800,101.086 224.800 C 101.279 224.800,99.692 222.048,99.136 221.420 C 98.951 221.211,98.800 221.170,98.800 221.329 M102.096 226.595 C 102.593 227.362,103.144 227.992,103.320 227.995 C 103.497 227.998,103.160 227.370,102.573 226.600 C 101.200 224.800,100.932 224.797,102.096 226.595 M244.864 229.095 C 242.810 231.167,241.199 232.932,241.285 233.018 C 241.371 233.104,243.133 231.476,245.200 229.400 C 247.267 227.324,248.878 225.558,248.779 225.477 C 248.681 225.395,246.919 227.023,244.864 229.095 M104.050 229.044 C 104.881 230.318,108.003 233.730,107.982 233.341 C 107.972 233.153,106.959 231.920,105.732 230.600 C 104.505 229.280,103.748 228.580,104.050 229.044 M267.702 259.547 C 251.589 275.746,238.404 289.090,238.402 289.199 C 238.398 289.526,295.583 232.294,296.453 231.100 C 296.894 230.495,297.197 230.021,297.127 230.047 C 297.057 230.073,283.816 243.348,267.702 259.547 M236.496 237.464 C 234.238 239.739,232.532 241.600,232.703 241.600 C 233.121 241.600,241.009 233.667,240.780 233.477 C 240.681 233.395,238.753 235.189,236.496 237.464 M109.200 234.589 C 109.200 234.840,111.628 237.050,112.861 237.923 C 114.267 238.917,113.591 238.145,111.400 236.253 C 110.190 235.209,109.200 234.460,109.200 234.589 M228.095 245.831 C 226.057 247.904,224.531 249.600,224.703 249.600 C 224.875 249.600,226.719 247.890,228.800 245.800 C 230.881 243.710,232.408 242.014,232.192 242.031 C 231.976 242.049,230.133 243.759,228.095 245.831 M133.400 248.400 C 133.840 248.589,134.470 248.744,134.800 248.744 C 135.178 248.744,135.104 248.617,134.600 248.400 C 134.160 248.211,133.530 248.056,133.200 248.056 C 132.822 248.056,132.896 248.183,133.400 248.400 M136.600 249.200 C 137.040 249.389,137.760 249.544,138.200 249.544 L 139.000 249.544 138.200 249.200 C 137.760 249.011,137.040 248.856,136.600 248.856 L 135.800 248.856 136.600 249.200 M158.200 249.200 C 157.696 249.417,157.622 249.544,158.000 249.544 C 158.330 249.544,158.960 249.389,159.400 249.200 C 159.904 248.983,159.978 248.856,159.600 248.856 C 159.270 248.856,158.640 249.011,158.200 249.200 M142.075 250.060 C 142.584 250.203,145.250 250.320,148.000 250.320 C 150.750 250.320,153.415 250.203,153.921 250.060 C 154.428 249.917,151.762 249.800,147.997 249.800 C 144.231 249.800,141.567 249.917,142.075 250.060 M179.793 267.558 C 175.617 271.716,169.771 277.611,166.802 280.658 C 163.832 283.706,167.254 280.395,174.404 273.300 C 181.554 266.205,187.569 260.400,187.771 260.400 C 187.972 260.400,188.511 260.715,188.969 261.100 C 189.799 261.799,189.799 261.799,189.038 260.900 C 187.868 259.518,187.872 259.516,179.793 267.558 M212.769 261.038 C 212.478 261.389,211.330 262.197,210.220 262.834 C 208.169 264.010,207.943 264.466,209.920 263.439 C 211.366 262.688,214.215 260.400,213.704 260.400 C 213.481 260.400,213.060 260.687,212.769 261.038 M192.400 263.414 C 192.400 263.693,195.306 264.831,195.691 264.703 C 195.882 264.639,195.220 264.284,194.219 263.913 C 193.219 263.542,192.400 263.317,192.400 263.414 M197.115 265.272 C 197.492 265.421,199.240 265.544,201.000 265.544 C 202.760 265.544,204.508 265.421,204.885 265.272 C 205.262 265.122,203.514 265.000,201.000 265.000 C 198.486 265.000,196.738 265.122,197.115 265.272 M163.416 288.900 C 166.340 291.521,167.305 291.983,164.600 289.468 C 163.280 288.241,162.047 287.228,161.859 287.218 C 161.672 287.208,162.372 287.965,163.416 288.900 M167.398 291.996 C 167.715 292.509,171.218 294.919,171.383 294.739 C 171.453 294.662,170.531 293.926,169.333 293.102 C 168.135 292.278,167.264 291.780,167.398 291.996 M174.000 296.367 C 174.963 297.152,175.600 297.408,175.600 297.010 C 175.600 296.906,175.015 296.535,174.300 296.186 L 173.000 295.552 174.000 296.367 M187.400 301.600 C 187.536 301.820,188.042 301.987,188.524 301.972 C 189.369 301.945,189.371 301.931,188.600 301.600 C 187.499 301.127,187.108 301.127,187.400 301.600 M213.800 301.600 C 213.029 301.931,213.031 301.945,213.876 301.972 C 214.358 301.987,214.864 301.820,215.000 301.600 C 215.292 301.127,214.901 301.127,213.800 301.600 M191.004 302.406 C 191.138 302.623,191.807 302.800,192.490 302.800 C 194.001 302.800,193.849 302.600,192.080 302.263 C 191.255 302.106,190.852 302.160,191.004 302.406 M209.600 302.400 L 208.600 302.720 209.600 302.754 C 210.150 302.773,210.870 302.613,211.200 302.400 C 211.964 301.906,211.142 301.906,209.600 302.400 M198.915 303.096 C 200.188 303.176,202.168 303.175,203.315 303.094 C 204.462 303.014,203.420 302.949,201.000 302.950 C 198.580 302.951,197.642 303.016,198.915 303.096 " stroke="none" fill="#96dc96" fill-rule="evenodd"></path><path id="path3" d="M197.900 85.498 C 199.715 85.572,202.685 85.572,204.500 85.498 C 206.315 85.423,204.830 85.363,201.200 85.363 C 197.570 85.363,196.085 85.423,197.900 85.498 M190.800 86.000 C 189.443 86.286,189.437 86.295,190.600 86.307 C 191.260 86.315,192.250 86.176,192.800 86.000 C 194.112 85.580,192.796 85.580,190.800 86.000 M187.200 86.800 C 186.396 87.057,186.357 87.123,187.000 87.132 C 187.440 87.138,188.160 86.989,188.600 86.800 C 189.619 86.362,188.568 86.362,187.200 86.800 M213.400 86.781 C 214.168 87.129,216.310 87.356,215.967 87.053 C 215.875 86.972,215.080 86.796,214.200 86.662 C 213.085 86.493,212.842 86.529,213.400 86.781 M184.400 87.600 C 183.576 87.864,183.541 87.926,184.200 87.954 C 184.640 87.973,185.270 87.813,185.600 87.600 C 186.301 87.147,185.814 87.147,184.400 87.600 M179.000 89.578 C 178.120 89.995,177.513 90.350,177.651 90.368 C 178.040 90.418,180.800 89.214,180.800 88.995 C 180.800 88.727,180.799 88.727,179.000 89.578 M223.200 89.789 C 223.200 90.106,226.100 91.233,226.328 91.005 C 226.441 90.892,226.435 90.800,226.316 90.800 C 226.196 90.800,225.446 90.528,224.649 90.195 C 223.852 89.862,223.200 89.679,223.200 89.789 M227.400 91.796 C 228.294 92.539,230.828 93.909,230.200 93.310 C 229.980 93.100,229.080 92.524,228.200 92.030 C 227.320 91.535,226.960 91.430,227.400 91.796 M172.000 93.200 C 171.010 93.858,170.339 94.397,170.509 94.398 C 170.857 94.400,174.000 92.374,174.000 92.147 C 174.000 91.892,173.842 91.975,172.000 93.200 M168.200 95.835 L 167.000 96.866 168.400 95.963 C 170.196 94.804,170.201 94.800,169.767 94.802 C 169.565 94.803,168.860 95.268,168.200 95.835 M164.376 98.831 L 162.200 100.861 164.500 98.954 C 166.611 97.204,167.019 96.800,166.676 96.800 C 166.608 96.800,165.573 97.714,164.376 98.831 M238.200 99.600 C 239.283 100.700,240.260 101.600,240.370 101.600 C 240.480 101.600,239.683 100.700,238.600 99.600 C 237.517 98.500,236.540 97.600,236.430 97.600 C 236.320 97.600,237.117 98.500,238.200 99.600 M228.566 113.367 C 222.387 119.579,217.189 124.919,217.015 125.231 C 216.840 125.544,222.030 120.491,228.548 114.003 C 235.067 107.514,240.400 102.159,240.400 102.103 C 240.400 101.580,238.303 103.576,228.566 113.367 M151.988 111.100 L 149.400 113.800 152.100 111.212 C 153.585 109.788,154.800 108.573,154.800 108.512 C 154.800 108.217,154.393 108.592,151.988 111.100 M131.398 131.700 L 116.200 147.000 131.500 131.802 C 145.720 117.677,146.980 116.400,146.698 116.400 C 146.642 116.400,139.757 123.285,131.398 131.700 M199.500 122.293 C 200.435 122.377,201.965 122.377,202.900 122.293 C 203.835 122.209,203.070 122.140,201.200 122.140 C 199.330 122.140,198.565 122.209,199.500 122.293 M195.400 122.800 C 194.896 123.017,194.822 123.144,195.200 123.144 C 195.530 123.144,196.160 122.989,196.600 122.800 C 197.104 122.583,197.178 122.456,196.800 122.456 C 196.470 122.456,195.840 122.611,195.400 122.800 M192.326 124.014 C 191.515 124.442,190.746 124.964,190.616 125.173 C 190.431 125.474,193.676 123.881,194.367 123.332 C 194.896 122.912,193.581 123.351,192.326 124.014 M209.400 124.213 C 210.500 124.793,211.746 125.567,212.169 125.934 C 212.592 126.300,212.801 126.368,212.635 126.084 C 212.234 125.399,209.656 123.788,208.400 123.438 C 207.850 123.285,208.300 123.633,209.400 124.213 M213.658 126.965 C 214.194 127.553,214.453 127.599,215.058 127.213 C 215.777 126.754,215.777 126.747,215.049 126.977 C 214.636 127.107,214.006 126.996,213.649 126.729 C 213.067 126.294,213.068 126.319,213.658 126.965 M177.397 137.700 L 167.000 148.200 177.500 137.803 C 183.275 132.084,188.000 127.359,188.000 127.303 C 188.000 127.020,187.059 127.943,177.397 137.700 M251.700 138.296 C 252.965 138.375,255.035 138.375,256.300 138.296 C 257.565 138.216,256.530 138.151,254.000 138.151 C 251.470 138.151,250.435 138.216,251.700 138.296 M244.200 138.796 C 243.702 139.008,244.231 139.051,245.600 138.912 C 246.810 138.789,247.875 138.623,247.967 138.544 C 248.311 138.247,244.967 138.470,244.200 138.796 M260.433 138.544 C 260.525 138.623,261.500 138.791,262.600 138.918 C 263.887 139.067,264.315 139.026,263.800 138.803 C 263.036 138.472,260.086 138.245,260.433 138.544 M240.400 139.606 C 239.978 139.882,240.215 139.923,241.200 139.742 C 242.925 139.425,243.251 139.198,241.967 139.206 C 241.435 139.209,240.730 139.389,240.400 139.606 M265.233 139.343 C 265.325 139.421,266.030 139.601,266.800 139.742 C 267.785 139.923,268.022 139.882,267.600 139.606 C 267.058 139.250,264.837 139.003,265.233 139.343 M237.600 140.418 C 237.162 140.715,237.324 140.752,238.200 140.556 C 239.671 140.227,239.990 139.998,238.967 140.006 C 238.545 140.009,237.930 140.195,237.600 140.418 M230.800 143.000 C 230.250 143.314,229.980 143.572,230.200 143.572 C 230.420 143.572,231.050 143.314,231.600 143.000 C 232.150 142.686,232.420 142.428,232.200 142.428 C 231.980 142.428,231.350 142.686,230.800 143.000 M275.633 142.539 C 276.164 142.983,281.584 145.499,281.413 145.222 C 281.193 144.866,276.252 142.400,275.759 142.400 C 275.598 142.400,275.542 142.463,275.633 142.539 M223.000 147.285 C 219.758 149.507,214.681 153.835,212.000 156.663 C 210.281 158.476,210.499 158.327,213.000 155.978 C 217.320 151.921,220.064 149.672,223.396 147.458 C 224.933 146.436,226.013 145.609,225.796 145.620 C 225.578 145.631,224.320 146.381,223.000 147.285 M285.204 147.871 C 287.072 149.120,290.670 152.121,293.200 154.539 L 297.800 158.936 293.200 154.340 C 289.274 150.418,283.167 145.600,282.122 145.600 C 281.949 145.600,283.336 146.622,285.204 147.871 M149.602 165.764 L 132.603 183.000 149.902 165.802 C 159.416 156.343,167.200 148.558,167.200 148.502 C 167.200 148.010,164.449 150.709,149.602 165.764 M110.386 152.700 L 108.200 155.000 110.500 152.814 C 112.637 150.782,112.983 150.400,112.686 150.400 C 112.624 150.400,111.589 151.435,110.386 152.700 M106.159 156.900 C 104.407 158.921,103.887 159.600,104.090 159.600 C 104.207 159.600,104.967 158.790,105.779 157.800 C 107.281 155.966,107.579 155.263,106.159 156.900 M298.391 160.388 C 298.857 161.041,299.442 161.702,299.691 161.856 C 299.941 162.011,299.641 161.476,299.025 160.668 C 297.688 158.915,297.184 158.692,298.391 160.388 M102.627 161.400 C 102.040 162.170,101.703 162.798,101.880 162.795 C 102.056 162.792,102.607 162.162,103.104 161.395 C 104.268 159.597,104.000 159.600,102.627 161.400 M205.191 163.500 L 201.800 167.000 205.388 163.600 C 207.361 161.730,209.056 160.155,209.155 160.100 C 209.253 160.045,209.164 160.000,208.958 160.000 C 208.751 160.000,207.056 161.575,205.191 163.500 M100.824 164.118 C 100.523 164.603,100.015 165.405,99.693 165.900 C 99.371 166.395,99.195 166.800,99.301 166.800 C 99.583 166.800,101.686 163.553,101.515 163.381 C 101.435 163.302,101.124 163.633,100.824 164.118 M97.986 169.098 C 97.468 170.144,96.979 171.135,96.898 171.300 C 96.818 171.465,96.837 171.600,96.941 171.600 C 97.192 171.600,99.228 167.495,99.060 167.327 C 98.988 167.254,98.504 168.051,97.986 169.098 M196.400 172.200 C 194.540 174.070,193.151 175.600,193.315 175.600 C 193.478 175.600,195.141 174.070,197.011 172.200 C 198.881 170.330,200.270 168.800,200.097 168.800 C 199.924 168.800,198.260 170.330,196.400 172.200 M305.041 171.400 C 305.642 173.320,306.690 176.023,306.922 176.256 C 307.348 176.681,306.556 174.277,305.647 172.386 C 305.176 171.404,304.903 170.960,305.041 171.400 M252.900 175.087 C 253.505 175.178,254.495 175.178,255.100 175.087 C 255.705 174.995,255.210 174.920,254.000 174.920 C 252.790 174.920,252.295 174.995,252.900 175.087 M249.700 175.476 C 250.085 175.576,250.715 175.576,251.100 175.476 C 251.485 175.375,251.170 175.293,250.400 175.293 C 249.630 175.293,249.315 175.375,249.700 175.476 M256.900 175.476 C 257.285 175.576,257.915 175.576,258.300 175.476 C 258.685 175.375,258.370 175.293,257.600 175.293 C 256.830 175.293,256.515 175.375,256.900 175.476 M245.748 176.761 C 244.400 177.398,243.150 178.163,242.971 178.460 C 242.708 178.898,242.762 178.907,243.259 178.505 C 243.595 178.232,245.025 177.476,246.435 176.823 C 247.846 176.171,248.820 175.629,248.600 175.619 C 248.380 175.609,247.097 176.123,245.748 176.761 M260.758 176.437 C 261.725 176.866,262.588 177.145,262.675 177.058 C 262.848 176.886,259.765 175.582,259.292 175.628 C 259.131 175.644,259.791 176.008,260.758 176.437 M184.215 184.385 C 180.047 188.557,176.719 192.038,176.819 192.120 C 176.918 192.202,180.466 188.789,184.702 184.535 C 188.939 180.281,192.267 176.800,192.099 176.800 C 191.930 176.800,188.382 180.213,184.215 184.385 M307.206 177.433 C 307.209 177.855,307.395 178.470,307.618 178.800 C 307.915 179.238,307.952 179.076,307.756 178.200 C 307.427 176.729,307.198 176.410,307.206 177.433 M213.514 207.481 C 197.736 223.255,184.874 236.207,184.931 236.264 C 184.988 236.321,197.986 223.415,213.816 207.584 C 229.646 191.753,242.508 178.800,242.399 178.801 C 242.290 178.801,229.291 191.707,213.514 207.481 M94.046 179.667 C 94.021 180.034,93.896 180.664,93.770 181.067 C 93.552 181.762,93.563 181.763,93.997 181.087 C 94.248 180.696,94.373 180.066,94.273 179.687 C 94.111 179.068,94.088 179.066,94.046 179.667 M266.951 180.411 C 267.710 181.077,268.905 182.517,269.607 183.611 C 271.014 185.804,271.666 186.329,270.523 184.348 C 269.602 182.754,266.445 179.200,265.949 179.200 C 265.742 179.200,266.193 179.745,266.951 180.411 M308.195 180.800 C 308.604 183.525,309.107 185.447,309.136 184.400 C 309.152 183.850,308.899 182.500,308.575 181.400 C 308.168 180.022,308.050 179.835,308.195 180.800 M93.264 183.067 C 93.229 183.764,93.096 184.664,92.970 185.067 C 92.753 185.759,92.765 185.760,93.194 185.091 C 93.445 184.702,93.577 183.802,93.489 183.091 L 93.328 181.800 93.264 183.067 M92.230 191.300 C 92.094 193.555,92.124 196.660,92.298 198.200 C 92.550 200.438,92.616 199.616,92.626 194.100 C 92.640 186.122,92.571 185.637,92.230 191.300 M309.759 194.000 C 309.759 197.190,309.821 198.495,309.897 196.900 C 309.973 195.305,309.973 192.695,309.897 191.100 C 309.821 189.505,309.759 190.810,309.759 194.000 M129.340 194.000 C 129.340 195.870,129.409 196.635,129.493 195.700 C 129.577 194.765,129.577 193.235,129.493 192.300 C 129.409 191.365,129.340 192.130,129.340 194.000 M272.928 194.000 C 272.928 195.430,273.001 196.015,273.089 195.300 C 273.178 194.585,273.178 193.415,273.089 192.700 C 273.001 191.985,272.928 192.570,272.928 194.000 M171.679 196.920 C 169.656 198.952,168.000 200.749,168.000 200.913 C 168.000 201.076,169.726 199.484,171.836 197.374 C 173.946 195.265,175.601 193.468,175.515 193.382 C 175.429 193.296,173.703 194.888,171.679 196.920 M272.200 198.400 C 272.048 199.091,272.007 199.741,272.109 199.842 C 272.211 199.944,272.409 199.453,272.550 198.750 C 272.883 197.083,272.560 196.760,272.200 198.400 M162.600 205.926 C 160.400 208.074,157.925 210.148,157.100 210.535 C 155.571 211.251,155.030 211.782,156.300 211.320 C 157.799 210.774,160.342 208.721,163.591 205.432 C 168.190 200.778,167.541 201.101,162.600 205.926 M93.068 203.800 C 93.371 205.777,93.602 206.114,93.594 204.567 C 93.591 203.925,93.416 203.130,93.205 202.800 C 92.945 202.391,92.901 202.710,93.068 203.800 M269.785 204.100 C 269.168 205.035,268.920 205.589,269.232 205.331 C 269.833 204.834,271.364 202.400,271.076 202.400 C 270.983 202.400,270.402 203.165,269.785 204.100 M308.687 204.200 C 308.043 207.755,308.018 208.509,308.612 206.407 C 308.952 205.201,309.174 203.851,309.104 203.407 C 309.028 202.926,308.859 203.246,308.687 204.200 M134.401 206.936 C 136.139 208.806,139.206 211.200,139.865 211.200 C 140.041 211.200,139.469 210.726,138.593 210.147 C 137.717 209.568,136.010 208.173,134.801 207.047 L 132.602 205.000 134.401 206.936 M254.798 219.900 L 241.000 233.800 254.900 220.002 C 262.545 212.413,268.800 206.158,268.800 206.102 C 268.800 205.820,267.621 206.982,254.798 219.900 M93.844 207.400 C 94.173 208.871,94.402 209.190,94.394 208.167 C 94.391 207.745,94.205 207.130,93.982 206.800 C 93.685 206.362,93.648 206.524,93.844 207.400 M307.449 209.415 C 307.312 209.773,307.215 210.366,307.234 210.733 C 307.253 211.100,307.427 210.869,307.621 210.220 C 307.998 208.958,307.865 208.333,307.449 209.415 M147.305 213.087 C 147.914 213.179,148.814 213.177,149.305 213.082 C 149.797 212.987,149.300 212.911,148.200 212.914 C 147.100 212.917,146.697 212.995,147.305 213.087 M305.467 215.267 C 305.105 216.188,304.874 217.007,304.954 217.088 C 305.034 217.168,305.400 216.483,305.767 215.567 C 306.133 214.650,306.364 213.831,306.279 213.746 C 306.194 213.661,305.829 214.345,305.467 215.267 M96.898 216.700 C 98.276 219.537,98.953 220.781,99.060 220.673 C 99.228 220.505,97.192 216.400,96.941 216.400 C 96.837 216.400,96.818 216.535,96.898 216.700 M302.214 221.835 C 301.841 222.404,301.605 222.938,301.689 223.022 C 301.773 223.107,302.158 222.641,302.544 221.988 C 303.406 220.528,303.148 220.409,302.214 221.835 M99.815 222.300 C 101.156 224.385,101.600 224.977,101.600 224.680 C 101.600 224.296,99.555 221.200,99.301 221.200 C 99.195 221.200,99.426 221.695,99.815 222.300 M102.002 225.433 C 102.003 225.635,102.468 226.340,103.035 227.000 L 104.066 228.200 103.163 226.800 C 102.004 225.004,102.000 224.999,102.002 225.433 M299.144 226.700 C 297.993 228.089,297.506 228.800,297.704 228.800 C 297.814 228.800,298.386 228.170,298.973 227.400 C 300.063 225.971,300.195 225.432,299.144 226.700 M266.715 259.782 C 250.058 276.491,236.476 290.209,236.532 290.265 C 236.588 290.322,250.299 276.702,267.000 260.000 C 283.701 243.298,297.283 229.580,297.183 229.516 C 297.082 229.452,283.372 243.072,266.715 259.782 M105.600 230.525 C 105.600 230.594,106.185 231.179,106.900 231.825 L 108.200 233.000 107.025 231.700 C 105.930 230.488,105.600 230.216,105.600 230.525 M110.576 235.400 C 112.524 237.303,116.800 240.608,116.800 240.212 C 116.800 240.109,115.765 239.262,114.500 238.330 C 113.235 237.398,111.374 235.907,110.364 235.018 C 108.727 233.575,108.750 233.616,110.576 235.400 M236.792 237.900 L 233.000 241.800 236.900 238.008 C 240.522 234.486,240.982 234.000,240.692 234.000 C 240.633 234.000,238.878 235.755,236.792 237.900 M181.986 238.162 C 181.664 238.471,179.875 239.731,178.012 240.962 C 176.148 242.193,174.762 243.200,174.933 243.200 C 175.377 243.200,181.870 238.838,182.429 238.165 C 183.034 237.436,182.744 237.434,181.986 238.162 M117.200 240.504 C 117.200 240.715,121.196 243.193,123.080 244.150 C 125.412 245.334,125.043 244.805,122.600 243.463 C 121.280 242.737,119.525 241.734,118.700 241.232 C 117.875 240.731,117.200 240.403,117.200 240.504 M222.797 251.900 L 213.000 261.800 222.900 252.003 C 228.345 246.615,232.800 242.160,232.800 242.103 C 232.800 241.820,231.901 242.701,222.797 251.900 M163.200 247.600 C 162.376 247.864,162.341 247.926,163.000 247.954 C 163.440 247.973,164.070 247.813,164.400 247.600 C 165.101 247.147,164.614 247.147,163.200 247.600 M140.500 249.487 C 141.105 249.578,142.095 249.578,142.700 249.487 C 143.305 249.395,142.810 249.320,141.600 249.320 C 140.390 249.320,139.895 249.395,140.500 249.487 M153.705 249.487 C 154.314 249.579,155.214 249.577,155.705 249.482 C 156.197 249.387,155.700 249.311,154.600 249.314 C 153.500 249.317,153.097 249.395,153.705 249.487 M146.115 249.896 C 147.388 249.976,149.368 249.975,150.515 249.894 C 151.662 249.814,150.620 249.749,148.200 249.750 C 145.780 249.751,144.842 249.816,146.115 249.896 M187.633 260.500 C 187.725 260.555,188.340 261.050,189.000 261.600 L 190.200 262.600 189.230 261.500 C 188.697 260.895,188.082 260.400,187.864 260.400 C 187.645 260.400,187.542 260.445,187.633 260.500 M174.198 273.700 L 161.400 286.600 174.300 273.802 C 181.395 266.764,187.200 260.959,187.200 260.902 C 187.200 260.620,186.091 261.711,174.198 273.700 M211.218 262.650 C 209.336 263.986,209.171 264.218,210.629 263.477 C 211.305 263.134,212.092 262.571,212.378 262.226 C 213.060 261.405,212.877 261.472,211.218 262.650 M205.400 265.200 C 204.896 265.417,204.822 265.544,205.200 265.544 C 205.530 265.544,206.160 265.389,206.600 265.200 C 207.104 264.983,207.178 264.856,206.800 264.856 C 206.470 264.856,205.840 265.011,205.400 265.200 M200.100 265.887 C 200.705 265.978,201.695 265.978,202.300 265.887 C 202.905 265.795,202.410 265.720,201.200 265.720 C 199.990 265.720,199.495 265.795,200.100 265.887 M162.400 287.325 C 162.400 287.394,162.985 287.979,163.700 288.625 L 165.000 289.800 163.825 288.500 C 162.730 287.288,162.400 287.016,162.400 287.325 M234.385 291.632 L 233.000 292.863 234.288 292.013 C 235.430 291.259,236.293 290.400,235.908 290.400 C 235.832 290.400,235.147 290.954,234.385 291.632 M170.800 294.020 C 172.187 294.961,172.978 295.235,172.000 294.436 C 171.450 293.986,170.820 293.617,170.600 293.615 C 170.380 293.613,170.470 293.796,170.800 294.020 M229.100 295.029 C 227.605 295.840,227.696 296.178,229.200 295.400 C 229.860 295.059,230.400 294.694,230.400 294.590 C 230.400 294.332,230.357 294.347,229.100 295.029 M187.200 301.200 C 188.568 301.638,189.619 301.638,188.600 301.200 C 188.160 301.011,187.440 300.862,187.000 300.868 C 186.357 300.877,186.396 300.943,187.200 301.200 M213.400 301.219 C 212.842 301.471,213.085 301.507,214.200 301.338 C 215.080 301.204,215.875 301.028,215.967 300.947 C 216.310 300.644,214.168 300.871,213.400 301.219 M189.633 301.749 C 189.725 301.831,190.700 302.001,191.800 302.128 C 193.149 302.284,193.474 302.249,192.800 302.020 C 191.801 301.680,189.318 301.468,189.633 301.749 M209.200 302.020 C 208.526 302.249,208.851 302.284,210.200 302.128 C 211.300 302.001,212.275 301.831,212.367 301.749 C 212.682 301.468,210.199 301.680,209.200 302.020 M197.900 302.698 C 199.715 302.772,202.685 302.772,204.500 302.698 C 206.315 302.623,204.830 302.563,201.200 302.563 C 197.570 302.563,196.085 302.623,197.900 302.698 " stroke="none" fill="#b4e4b4" fill-rule="evenodd"></path><path id="path4" d="M156.386 106.300 L 154.200 108.600 156.500 106.414 C 158.637 104.382,158.983 104.000,158.686 104.000 C 158.624 104.000,157.589 105.035,156.386 106.300 M147.586 115.100 L 145.400 117.400 147.700 115.214 C 149.837 113.182,150.183 112.800,149.886 112.800 C 149.824 112.800,148.789 113.835,147.586 115.100 M139.586 123.100 L 137.400 125.400 139.700 123.214 C 141.837 121.182,142.183 120.800,141.886 120.800 C 141.824 120.800,140.789 121.835,139.586 123.100 M130.786 131.900 L 128.600 134.200 130.900 132.014 C 133.037 129.982,133.383 129.600,133.086 129.600 C 133.024 129.600,131.989 130.635,130.786 131.900 M122.786 139.900 L 120.600 142.200 122.900 140.014 C 125.037 137.982,125.383 137.600,125.086 137.600 C 125.024 137.600,123.989 138.635,122.786 139.900 M114.388 148.300 L 111.800 151.000 114.500 148.412 C 115.985 146.988,117.200 145.773,117.200 145.712 C 117.200 145.417,116.793 145.792,114.388 148.300 M293.600 154.600 C 295.017 156.030,296.267 157.200,296.377 157.200 C 296.487 157.200,295.417 156.030,294.000 154.600 C 292.583 153.170,291.333 152.000,291.223 152.000 C 291.113 152.000,292.183 153.170,293.600 154.600 M262.999 264.100 L 241.000 286.200 263.100 264.201 C 275.255 252.102,285.200 242.157,285.200 242.101 C 285.200 241.820,283.447 243.557,262.999 264.100 " stroke="none" fill="#ace4ac" fill-rule="evenodd"></path></g></svg>