<?xml version="1.0" standalone="no"?>
<!DOCTYPE svg PUBLIC "-//W3C//DTD SVG 20010904//EN"
 "http://www.w3.org/TR/2001/REC-SVG-20010904/DTD/svg10.dtd">
<svg version="1.0" xmlns="http://www.w3.org/2000/svg"
 width="512.000000pt" height="512.000000pt" viewBox="0 0 512.000000 512.000000"
 preserveAspectRatio="xMidYMid meet">

<g transform="translate(0.000000,512.000000) scale(0.100000,-0.100000)"
fill="#000000" stroke="none">
<path d="M2410 5083 c-230 -21 -422 -78 -630 -185 -221 -113 -258 -145 -836
-722 -577 -578 -609 -615 -722 -836 -121 -235 -175 -437 -188 -700 -20 -401
105 -796 354 -1115 40 -52 291 -310 588 -606 480 -477 528 -522 634 -592 297
-196 595 -286 948 -287 411 0 780 135 1097 402 140 118 1012 1001 1083 1096
232 312 342 644 342 1029 -1 375 -114 718 -338 1018 -67 89 -1043 1066 -1145
1146 -256 200 -542 314 -869 349 -88 9 -241 11 -318 3z m286 -824 c150 -26
328 -109 422 -195 l57 -53 -205 -205 c-203 -204 -204 -205 -225 -187 -49 46
-107 66 -190 66 -67 0 -88 -5 -130 -27 -36 -19 -177 -154 -506 -485 -410 -411
-458 -463 -473 -507 -65 -199 73 -396 279 -396 130 0 123 -5 650 519 259 258
490 482 515 498 207 139 475 187 710 127 125 -32 279 -114 371 -200 193 -177
289 -394 289 -649 0 -184 -45 -336 -148 -495 -44 -69 -942 -972 -1033 -1041
-152 -113 -326 -169 -525 -169 -148 0 -250 23 -380 85 -86 42 -234 147 -234
167 0 5 91 99 201 209 195 193 202 199 223 184 59 -44 121 -65 192 -65 129 0
131 1 630 502 306 307 449 457 464 488 32 63 38 161 15 231 -26 77 -109 159
-189 183 -72 23 -156 17 -221 -16 -30 -16 -196 -174 -512 -489 -282 -281 -491
-480 -526 -503 -156 -101 -306 -146 -492 -146 -249 0 -452 85 -626 261 -172
174 -257 401 -246 653 8 183 57 324 162 471 53 73 982 1000 1045 1042 187 125
429 179 636 142z"/>
</g>
</svg>
